M48
; DRILL file {KiCad 8.0.5} date 2024-09-20T21:49:55-0400
; FORMAT={-:-/ absolute / metric / decimal}
; #@! TF.CreationDate,2024-09-20T21:49:55-04:00
; #@! TF.GenerationSoftware,Kicad,Pcbnew,8.0.5
; #@! TF.FileFunction,Plated,1,4,PTH
FMAT,2
METRIC
; #@! TA.AperFunction,Plated,PTH,ViaDrill
T1C0.300
; #@! TA.AperFunction,Plated,PTH,ComponentDrill
T2C0.600
; #@! TA.AperFunction,Plated,PTH,ComponentDrill
T3C0.708
; #@! TA.AperFunction,Plated,PTH,ComponentDrill
T4C0.750
; #@! TA.AperFunction,Plated,PTH,ComponentDrill
T5C0.800
; #@! TA.AperFunction,Plated,PTH,ComponentDrill
T6C0.813
; #@! TA.AperFunction,Plated,PTH,ComponentDrill
T7C0.840
; #@! TA.AperFunction,Plated,PTH,ComponentDrill
T8C0.864
; #@! TA.AperFunction,Plated,PTH,ComponentDrill
T9C0.870
; #@! TA.AperFunction,Plated,PTH,ComponentDrill
T10C0.889
; #@! TA.AperFunction,Plated,PTH,ComponentDrill
T11C0.900
; #@! TA.AperFunction,Plated,PTH,ComponentDrill
T12C1.000
; #@! TA.AperFunction,Plated,PTH,ComponentDrill
T13C1.016
; #@! TA.AperFunction,Plated,PTH,ComponentDrill
T14C1.067
; #@! TA.AperFunction,Plated,PTH,ComponentDrill
T15C1.400
; #@! TA.AperFunction,Plated,PTH,ComponentDrill
T16C3.048
; #@! TA.AperFunction,Plated,PTH,ComponentDrill
T17C3.180
; #@! TA.AperFunction,Plated,PTH,ComponentDrill
T18C4.300
%
G90
G05
T1
X107.0Y-209.42
X129.175Y-105.0
X129.275Y-92.6
X129.275Y-98.8
X129.325Y-86.4
X148.9Y-105.025
X149.075Y-86.425
X149.175Y-98.825
X149.275Y-92.625
X168.575Y-98.725
X168.6Y-86.325
X168.725Y-92.525
X168.8Y-104.925
X188.325Y-98.75
X188.35Y-104.95
X188.525Y-86.35
X188.675Y-92.55
X207.95Y-98.75
X207.975Y-104.95
X208.1Y-92.55
X208.25Y-86.35
X210.1Y-98.7
X240.8Y-77.65
X240.8Y-78.35
X240.8Y-79.05
X246.048Y-176.727
X246.975Y-179.3
X258.95Y-133.55
X259.0Y-112.25
X259.654Y-172.954
X259.82Y-170.42
X260.25Y-114.45
X260.55Y-110.8
X260.65Y-168.59
X261.357Y-198.34
X261.4Y-123.85
X261.4Y-128.9
X261.4Y-134.0
X261.5Y-117.1
X262.046Y-197.8
X262.735Y-197.233
X263.425Y-196.612
X264.122Y-196.177
X264.811Y-195.662
X265.1Y-118.7
X265.5Y-195.15
X266.25Y-194.8
X266.6Y-119.885
X266.907Y-117.823
X267.4Y-185.05
X267.532Y-111.068
X267.55Y-135.5
X268.157Y-118.9
X268.172Y-184.84
X268.243Y-199.938
X268.861Y-185.431
X268.868Y-200.563
X269.433Y-201.129
X269.55Y-167.669
X269.55Y-184.84
X269.999Y-201.695
X270.24Y-169.55
X270.24Y-185.414
X270.565Y-202.26
X276.238Y-203.85
X276.884Y-176.8
X276.928Y-204.313
X277.0Y-166.95
X277.617Y-203.779
X277.684Y-176.8
X277.975Y-107.225
X278.306Y-204.561
X278.484Y-176.8
X278.6Y-105.175
X278.6Y-123.2
X278.981Y-205.252
X279.284Y-176.8
X279.4Y-123.2
X280.084Y-176.8
X280.1Y-87.4
X280.2Y-123.2
X281.0Y-123.2
X281.0Y-89.25
X281.6Y-99.15
X281.8Y-123.2
X282.6Y-123.2
X282.6Y-117.2
X283.4Y-123.2
X283.4Y-117.2
X284.2Y-123.2
X284.2Y-117.2
X285.0Y-123.2
X285.0Y-117.2
X285.025Y-132.415
X285.025Y-133.215
X285.025Y-134.015
X285.025Y-134.815
X285.025Y-135.615
X285.025Y-136.415
X285.025Y-137.215
X285.8Y-123.2
X285.8Y-117.2
X286.425Y-105.8
X286.425Y-106.6
X288.2Y-103.0
X288.475Y-89.409
X289.222Y-182.551
X289.775Y-89.65
X289.911Y-181.873
X290.4Y-95.7
X290.6Y-182.4
X290.996Y-88.334
X291.43Y-89.006
X291.6Y-99.275
X292.0Y-89.65
X293.717Y-88.825
X294.445Y-99.12
X294.764Y-88.761
X295.4Y-97.8
X297.0Y-89.45
X297.95Y-84.875
X299.949Y-88.761
X313.15Y-123.2
X314.034Y-123.2
X314.918Y-123.2
X315.802Y-123.2
X316.686Y-123.2
X317.569Y-123.2
X318.46Y-123.193
X320.25Y-92.75
X334.5Y-99.35
X338.55Y-85.6
X340.8Y-77.9
X341.117Y-97.883
X345.55Y-86.65
X345.854Y-81.7
X345.863Y-75.063
X346.838Y-85.575
X349.9Y-96.75
X350.6Y-97.45
X351.3Y-87.75
X351.407Y-99.177
X353.128Y-99.272
X353.523Y-105.623
X353.625Y-165.175
X353.78Y-225.35
X354.1Y-164.7
X354.281Y-103.981
X354.575Y-164.225
X355.1Y-103.05
X355.125Y-159.72
X355.125Y-160.375
X355.125Y-161.025
X360.2Y-84.9
X360.372Y-87.331
X360.65Y-97.026
X361.0Y-88.6
X361.39Y-237.54
X361.625Y-87.35
X362.217Y-93.625
X363.505Y-95.055
X364.65Y-70.6
X365.439Y-93.939
X365.458Y-94.803
X365.8Y-70.8
X367.65Y-164.75
X368.4Y-164.75
X369.15Y-164.75
X369.6Y-91.63
X370.4Y-88.6
X370.851Y-92.599
X374.0Y-92.575
X374.316Y-93.775
X376.65Y-75.95
X377.05Y-78.5
X379.95Y-113.95
X380.65Y-113.95
X382.0Y-94.35
X383.75Y-79.0
X384.9Y-113.95
X385.6Y-113.95
T2
X102.32Y-69.708
X102.51Y-224.648
X103.265Y-67.428
X103.265Y-71.988
X103.455Y-222.368
X103.455Y-226.928
X105.545Y-66.483
X105.545Y-72.933
X105.735Y-221.423
X105.735Y-227.873
X107.826Y-67.428
X107.826Y-71.988
X108.015Y-222.368
X108.015Y-226.928
X108.77Y-69.708
X108.96Y-224.648
X181.06Y-69.708
X181.25Y-224.648
X182.005Y-67.428
X182.005Y-71.988
X182.195Y-222.368
X182.195Y-226.928
X184.285Y-66.483
X184.285Y-72.933
X184.475Y-221.423
X184.475Y-227.873
X186.566Y-67.428
X186.566Y-71.988
X186.755Y-222.368
X186.755Y-226.928
X187.51Y-69.708
X187.7Y-224.648
X226.78Y-69.793
X227.725Y-67.512
X227.725Y-72.073
X230.005Y-66.568
X230.005Y-73.018
X232.286Y-67.512
X232.286Y-72.073
X233.23Y-69.793
X245.575Y-99.375
X245.625Y-199.475
X246.52Y-97.095
X246.52Y-101.655
X246.57Y-197.195
X246.57Y-201.755
X248.8Y-96.15
X248.8Y-102.6
X248.85Y-196.25
X248.85Y-202.7
X251.08Y-97.095
X251.08Y-101.655
X251.13Y-197.195
X251.13Y-201.755
X252.025Y-99.375
X252.075Y-199.475
X384.45Y-92.568
X384.45Y-224.648
X385.395Y-90.288
X385.395Y-94.848
X385.395Y-222.368
X385.395Y-226.928
X387.675Y-89.343
X387.675Y-95.793
X387.675Y-221.423
X387.675Y-227.873
X389.955Y-90.288
X389.955Y-94.848
X389.955Y-222.368
X389.955Y-226.928
X390.9Y-92.568
X390.9Y-224.648
T3
X327.28Y-219.66
X327.28Y-222.2
X327.28Y-224.74
X327.28Y-227.28
X327.28Y-229.82
X327.28Y-232.36
X327.28Y-234.9
X334.9Y-219.66
X334.9Y-222.2
X334.9Y-224.74
X334.9Y-227.28
X334.9Y-229.82
X334.9Y-232.36
X334.9Y-234.9
X342.1Y-219.625
X342.1Y-222.165
X342.1Y-224.705
X342.1Y-227.245
X342.1Y-229.785
X342.1Y-232.325
X342.1Y-234.865
X349.72Y-219.625
X349.72Y-222.165
X349.72Y-224.705
X349.72Y-227.245
X349.72Y-229.785
X349.72Y-232.325
X349.72Y-234.865
T4
X356.6Y-232.76
X356.609Y-227.878
X356.61Y-230.32
X366.5Y-232.76
X366.509Y-227.878
X366.51Y-230.32
T5
X104.72Y-83.71
X104.72Y-86.25
X104.72Y-88.79
X104.72Y-91.33
X104.72Y-93.87
X104.72Y-96.41
X104.72Y-98.95
X104.72Y-101.49
X104.72Y-104.03
X104.72Y-106.57
X104.75Y-171.42
X104.75Y-173.96
X104.75Y-176.5
X104.75Y-179.04
X104.75Y-181.58
X104.75Y-184.12
X104.75Y-186.66
X104.75Y-189.2
X104.75Y-195.53
X104.75Y-198.07
X104.75Y-200.61
X104.75Y-203.15
X104.75Y-205.69
X104.75Y-208.23
X104.75Y-210.77
X104.75Y-213.31
X104.75Y-215.85
X104.76Y-149.74
X104.76Y-152.28
X104.76Y-154.82
X104.76Y-157.36
X104.76Y-159.9
X104.76Y-162.44
X104.869Y-116.727
X104.869Y-119.267
X104.869Y-121.807
X104.869Y-124.347
X104.869Y-126.887
X104.869Y-129.427
X104.869Y-131.967
X104.869Y-134.507
X104.869Y-137.047
X104.869Y-139.587
X108.75Y-139.64
X108.75Y-142.18
X108.75Y-144.72
X108.75Y-147.26
X108.75Y-149.8
X108.75Y-152.34
X108.75Y-154.88
X108.75Y-157.42
X108.75Y-159.96
X108.75Y-162.5
X108.75Y-182.85
X108.75Y-185.39
X108.75Y-187.93
X108.75Y-190.47
X108.75Y-193.01
X108.75Y-195.55
X108.78Y-105.26
X108.78Y-107.8
X108.78Y-110.34
X108.78Y-112.88
X108.78Y-115.42
X108.78Y-117.96
X276.705Y-76.7
X277.9Y-63.88
X277.9Y-71.5
X278.94Y-83.38
X278.94Y-91.0
X278.94Y-94.18
X278.94Y-101.8
X279.245Y-76.7
X280.44Y-63.88
X280.44Y-71.5
X281.48Y-83.38
X281.48Y-91.0
X281.48Y-94.18
X281.48Y-101.8
X281.785Y-76.7
X282.98Y-63.88
X282.98Y-71.5
X284.02Y-83.38
X284.02Y-91.0
X284.02Y-94.18
X284.02Y-101.8
X284.325Y-76.7
X285.52Y-63.88
X285.52Y-71.5
X286.56Y-83.38
X286.56Y-91.0
X286.56Y-94.18
X286.56Y-101.8
X286.865Y-76.7
X288.06Y-63.88
X288.06Y-71.5
X289.1Y-83.38
X289.1Y-91.0
X289.1Y-94.18
X289.1Y-101.8
X289.405Y-76.7
X291.64Y-83.38
X291.64Y-91.0
X291.64Y-94.18
X291.64Y-101.8
X292.845Y-76.7
X294.0Y-63.78
X294.0Y-71.4
X294.18Y-83.38
X294.18Y-91.0
X294.18Y-94.18
X294.18Y-101.8
X295.385Y-76.7
X296.54Y-63.78
X296.54Y-71.4
X296.72Y-83.38
X296.72Y-91.0
X296.72Y-94.18
X296.72Y-101.8
X297.925Y-76.7
X299.08Y-63.78
X299.08Y-71.4
X299.26Y-83.38
X299.26Y-91.0
X299.26Y-94.18
X299.26Y-101.8
X300.465Y-76.7
X301.62Y-63.78
X301.62Y-71.4
X301.8Y-83.38
X301.8Y-91.0
X301.8Y-94.18
X301.8Y-101.8
X303.005Y-76.7
X304.16Y-63.78
X304.16Y-71.4
X305.545Y-76.7
X311.38Y-83.58
X311.38Y-91.2
X311.38Y-94.2
X311.38Y-101.82
X311.41Y-72.88
X311.41Y-80.5
X313.92Y-83.58
X313.92Y-91.2
X313.92Y-94.2
X313.92Y-101.82
X313.95Y-72.88
X313.95Y-80.5
X316.46Y-83.58
X316.46Y-91.2
X316.46Y-94.2
X316.46Y-101.82
X316.49Y-72.88
X316.49Y-80.5
X319.0Y-83.58
X319.0Y-91.2
X319.0Y-94.2
X319.0Y-101.82
X319.03Y-72.88
X319.03Y-80.5
X321.54Y-83.58
X321.54Y-91.2
X321.54Y-94.2
X321.54Y-101.82
X321.57Y-72.88
X321.57Y-80.5
X324.08Y-83.58
X324.08Y-91.2
X324.08Y-94.2
X324.08Y-101.82
X324.11Y-72.88
X324.11Y-80.5
X326.62Y-83.58
X326.62Y-91.2
X326.62Y-94.2
X326.62Y-101.82
X326.65Y-72.88
X326.65Y-80.5
X333.6Y-72.805
X333.6Y-80.425
X333.6Y-83.58
X333.6Y-91.2
X333.6Y-94.1
X333.6Y-101.72
X336.14Y-72.805
X336.14Y-80.425
X336.14Y-83.58
X336.14Y-91.2
X336.14Y-94.1
X336.14Y-101.72
X338.68Y-72.805
X338.68Y-80.425
X338.68Y-83.58
X338.68Y-91.2
X338.68Y-94.1
X338.68Y-101.72
X341.22Y-72.805
X341.22Y-80.425
X341.22Y-83.58
X341.22Y-91.2
X341.22Y-94.1
X341.22Y-101.72
X343.76Y-72.805
X343.76Y-80.425
X343.76Y-83.58
X343.76Y-91.2
X343.76Y-94.1
X343.76Y-101.72
X346.3Y-72.805
X346.3Y-80.425
X346.3Y-83.58
X346.3Y-91.2
X346.3Y-94.1
X346.3Y-101.72
X347.27Y-66.2
X348.84Y-72.805
X348.84Y-80.425
X348.84Y-83.58
X348.84Y-91.2
X348.84Y-94.1
X348.84Y-101.72
X351.38Y-72.805
X351.38Y-80.425
X351.38Y-83.58
X351.38Y-91.2
X351.38Y-94.1
X351.38Y-101.72
X353.92Y-72.805
X353.92Y-80.425
X353.92Y-83.58
X353.92Y-91.2
X353.92Y-94.1
X353.92Y-101.72
X356.46Y-72.805
X356.46Y-80.425
X356.46Y-83.58
X356.46Y-91.2
X356.46Y-94.1
X356.46Y-101.72
X357.43Y-66.2
X363.0Y-72.1
X363.0Y-74.64
X363.0Y-77.18
X363.0Y-79.72
X363.0Y-82.26
X363.0Y-84.8
X363.0Y-87.34
X363.0Y-89.88
X367.23Y-99.445
X367.23Y-107.065
X368.5Y-72.1
X368.5Y-74.64
X368.5Y-77.18
X368.5Y-79.72
X368.5Y-82.26
X368.5Y-84.8
X368.5Y-87.34
X368.5Y-89.88
X368.5Y-101.985
X368.5Y-104.525
X369.77Y-99.445
X369.77Y-107.065
X371.04Y-101.985
X371.04Y-104.525
X372.31Y-99.445
X372.31Y-107.065
X374.0Y-72.1
X374.0Y-74.64
X374.0Y-77.18
X374.0Y-79.72
X374.0Y-82.26
X374.0Y-84.8
X374.0Y-87.34
X374.0Y-89.88
X374.763Y-99.443
X374.763Y-107.063
X376.033Y-101.983
X376.033Y-104.523
X377.303Y-99.443
X377.303Y-107.063
X378.573Y-101.983
X378.573Y-104.523
X379.3Y-72.1
X379.3Y-74.64
X379.3Y-77.18
X379.3Y-79.72
X379.3Y-82.26
X379.3Y-84.8
X379.3Y-87.34
X379.3Y-89.88
X379.843Y-99.443
X379.843Y-107.063
T6
X127.01Y-209.39
X127.01Y-211.93
X127.07Y-156.07
X127.07Y-158.61
X127.1Y-86.4
X127.1Y-88.94
X127.1Y-92.6
X127.1Y-95.14
X127.1Y-98.8
X127.1Y-101.34
X127.1Y-105.0
X127.1Y-107.54
X146.76Y-209.38
X146.76Y-211.92
X146.78Y-156.09
X146.78Y-158.63
X146.8Y-86.43
X146.8Y-88.97
X146.8Y-92.625
X146.8Y-95.165
X146.8Y-98.825
X146.8Y-101.365
X146.8Y-105.025
X146.8Y-107.565
X166.475Y-156.05
X166.475Y-158.59
X166.5Y-86.33
X166.5Y-88.87
X166.5Y-92.525
X166.5Y-95.065
X166.5Y-98.725
X166.5Y-101.265
X166.5Y-104.925
X166.5Y-107.465
X166.5Y-209.4
X166.5Y-211.94
X186.3Y-86.35
X186.3Y-88.89
X186.3Y-92.55
X186.3Y-95.09
X186.3Y-98.75
X186.3Y-101.29
X186.3Y-104.95
X186.3Y-107.49
X186.3Y-156.075
X186.3Y-158.615
X186.3Y-209.39
X186.3Y-211.93
X205.81Y-209.47
X205.81Y-212.01
X205.85Y-156.1
X205.85Y-158.64
X205.89Y-92.55
X205.89Y-95.09
X205.89Y-98.75
X205.89Y-101.29
X205.89Y-104.95
X205.89Y-107.49
X205.9Y-86.36
X205.9Y-88.9
X225.54Y-86.5
X225.54Y-89.04
X225.54Y-105.09
X225.54Y-107.63
X225.54Y-209.47
X225.54Y-212.01
X225.55Y-92.7
X225.55Y-95.24
X225.55Y-98.89
X225.55Y-101.43
X225.55Y-156.11
X225.55Y-158.65
X297.005Y-215.25
X297.005Y-217.79
X297.005Y-220.33
X297.005Y-222.87
X297.005Y-225.41
X297.005Y-227.95
X297.005Y-230.49
X304.625Y-215.25
X304.625Y-217.79
X304.625Y-220.33
X304.625Y-222.87
X304.625Y-225.41
X304.625Y-227.95
X304.625Y-230.49
X315.65Y-212.3
X315.65Y-214.916
X315.65Y-217.532
X315.65Y-220.149
X315.65Y-222.765
X315.65Y-225.381
X315.65Y-227.997
X315.65Y-230.613
X315.65Y-233.23
X372.35Y-221.14
X372.38Y-211.32
X374.89Y-221.14
X374.92Y-211.32
T7
X373.7Y-228.94
X373.7Y-230.21
X373.7Y-231.48
T8
X361.075Y-144.35
X361.079Y-132.858
X361.1Y-155.8
X361.1Y-167.3
X366.075Y-144.35
X366.079Y-132.858
X366.1Y-155.8
X366.1Y-167.3
T9
X267.321Y-203.79
X267.321Y-206.33
X267.321Y-208.87
X267.321Y-211.41
X267.321Y-213.95
X267.321Y-216.49
X267.321Y-219.03
X267.321Y-221.57
X267.321Y-224.11
X267.321Y-226.65
X267.321Y-229.19
X267.321Y-231.73
X267.321Y-234.27
X267.321Y-236.81
X282.879Y-203.79
X282.879Y-206.33
X282.879Y-208.87
X282.879Y-211.41
X282.879Y-213.95
X282.879Y-216.49
X282.879Y-219.03
X282.879Y-221.57
X282.879Y-224.11
X282.879Y-226.65
X282.879Y-229.19
X282.879Y-231.73
X282.879Y-234.27
X282.879Y-236.81
T10
X212.465Y-233.59
X212.485Y-228.475
X223.895Y-233.59
X223.915Y-228.475
X227.485Y-228.5
X227.51Y-233.55
X238.915Y-228.5
X238.94Y-233.55
X242.435Y-228.5
X242.51Y-233.6
X253.865Y-228.5
X253.94Y-233.6
X296.795Y-197.915
X296.795Y-205.535
X299.335Y-197.915
X299.335Y-205.535
X301.875Y-197.915
X301.875Y-205.535
X304.415Y-197.915
X304.415Y-205.535
X306.955Y-197.915
X306.955Y-205.535
X309.495Y-197.915
X309.495Y-205.535
X312.035Y-197.915
X312.035Y-205.535
X314.575Y-197.915
X314.575Y-205.535
X317.115Y-197.915
X317.115Y-205.535
X319.655Y-197.915
X319.655Y-205.535
X332.785Y-209.6
X344.215Y-209.6
X355.795Y-207.85
X355.815Y-211.19
X355.82Y-214.52
X355.82Y-217.84
X355.82Y-224.45
X355.83Y-221.16
X367.225Y-207.85
X367.245Y-211.19
X367.25Y-214.52
X367.25Y-217.84
X367.25Y-224.45
X367.26Y-221.16
T11
X213.215Y-240.09
X215.755Y-240.09
X220.7Y-240.12
X223.24Y-240.12
X228.2Y-240.12
X230.74Y-240.12
X235.7Y-240.12
X238.24Y-240.12
X243.2Y-240.12
X245.74Y-240.12
X250.775Y-240.15
X253.315Y-240.15
T12
X248.88Y-131.05
X248.88Y-133.59
X248.88Y-136.13
X248.88Y-138.67
X248.88Y-141.21
X248.88Y-143.75
X248.88Y-146.29
X248.88Y-148.83
X248.88Y-151.37
X248.88Y-153.91
X248.88Y-156.45
X248.88Y-158.99
X248.88Y-161.53
X248.88Y-164.07
X248.88Y-166.61
X248.88Y-169.15
X248.88Y-171.69
X248.88Y-174.23
X248.88Y-176.77
X248.88Y-179.31
X251.42Y-131.05
X251.42Y-133.59
X251.42Y-136.13
X251.42Y-138.67
X251.42Y-141.21
X251.42Y-143.75
X251.42Y-146.29
X251.42Y-148.83
X251.42Y-151.37
X251.42Y-153.91
X251.42Y-156.45
X251.42Y-158.99
X251.42Y-161.53
X251.42Y-164.07
X251.42Y-166.61
X251.42Y-169.15
X251.42Y-171.69
X251.42Y-174.23
X251.42Y-176.77
X251.42Y-179.31
X253.96Y-110.73
X253.96Y-113.27
X253.96Y-115.81
X253.96Y-118.35
X253.96Y-120.89
X253.96Y-123.43
X253.96Y-125.97
X253.96Y-128.51
X253.96Y-131.05
X253.96Y-133.59
X253.96Y-136.13
X253.96Y-138.67
X253.96Y-141.21
X253.96Y-143.75
X253.96Y-146.29
X253.96Y-148.83
X253.96Y-151.37
X253.96Y-153.91
X253.96Y-156.45
X253.96Y-158.99
X253.96Y-161.53
X253.96Y-164.07
X253.96Y-166.61
X253.96Y-169.15
X253.96Y-171.69
X253.96Y-174.23
X253.96Y-176.77
X253.96Y-179.31
X253.96Y-181.85
X253.96Y-184.39
X253.96Y-186.93
X253.96Y-189.47
X256.5Y-110.73
X256.5Y-113.27
X256.5Y-115.81
X256.5Y-118.35
X256.5Y-120.89
X256.5Y-123.43
X256.5Y-125.97
X256.5Y-128.51
X256.5Y-131.05
X256.5Y-133.59
X256.5Y-136.13
X256.5Y-138.67
X256.5Y-141.21
X256.5Y-143.75
X256.5Y-146.29
X256.5Y-148.83
X256.5Y-151.37
X256.5Y-153.91
X256.5Y-156.45
X256.5Y-158.99
X256.5Y-161.53
X256.5Y-164.07
X256.5Y-166.61
X256.5Y-169.15
X256.5Y-171.69
X256.5Y-174.23
X256.5Y-176.77
X256.5Y-179.31
X256.5Y-181.85
X256.5Y-184.39
X256.5Y-186.93
X256.5Y-189.47
T13
X95.0Y-84.94
X95.0Y-87.48
X95.0Y-90.02
X95.0Y-92.56
X95.0Y-95.1
X95.0Y-97.64
X95.0Y-100.18
X95.0Y-102.72
X95.0Y-105.26
X95.0Y-107.8
X95.0Y-110.34
X95.0Y-112.88
X95.0Y-115.42
X95.0Y-117.96
X95.0Y-120.5
X95.0Y-123.04
X95.0Y-125.58
X95.0Y-128.12
X95.0Y-130.66
X95.0Y-133.2
X95.0Y-135.74
X95.0Y-138.28
X95.0Y-140.82
X95.0Y-143.36
X95.0Y-145.9
X95.0Y-148.44
X95.0Y-150.98
X95.0Y-153.52
X95.0Y-156.06
X95.0Y-158.6
X95.0Y-161.14
X95.0Y-171.3
X95.0Y-173.84
X95.0Y-176.38
X95.0Y-178.92
X95.0Y-181.46
X95.0Y-184.0
X95.0Y-186.54
X95.0Y-189.08
X95.0Y-191.62
X95.0Y-194.16
X95.0Y-196.7
X95.0Y-199.24
X95.0Y-201.78
X95.0Y-204.32
X95.0Y-206.86
X95.0Y-209.4
X95.0Y-211.94
X95.0Y-214.48
X100.08Y-84.94
X100.08Y-87.48
X100.08Y-90.02
X100.08Y-92.56
X100.08Y-95.1
X100.08Y-97.64
X100.08Y-100.18
X100.08Y-102.72
X100.08Y-105.26
X100.08Y-107.8
X100.08Y-110.34
X100.08Y-112.88
X100.08Y-115.42
X100.08Y-117.96
X100.08Y-120.5
X100.08Y-123.04
X100.08Y-125.58
X100.08Y-128.12
X100.08Y-130.66
X100.08Y-133.2
X100.08Y-135.74
X100.08Y-138.28
X100.08Y-140.82
X100.08Y-143.36
X100.08Y-145.9
X100.08Y-148.44
X100.08Y-150.98
X100.08Y-153.52
X100.08Y-156.06
X100.08Y-158.6
X100.08Y-161.14
X100.08Y-171.3
X100.08Y-173.84
X100.08Y-176.38
X100.08Y-178.92
X100.08Y-181.46
X100.08Y-184.0
X100.08Y-186.54
X100.08Y-189.08
X100.08Y-191.62
X100.08Y-194.16
X100.08Y-196.7
X100.08Y-199.24
X100.08Y-201.78
X100.08Y-204.32
X100.08Y-206.86
X100.08Y-209.4
X100.08Y-211.94
X100.08Y-214.48
X114.7Y-84.96
X114.7Y-87.5
X114.7Y-90.04
X114.7Y-92.58
X114.7Y-95.12
X114.7Y-97.66
X114.7Y-100.2
X114.7Y-102.74
X114.7Y-105.28
X114.7Y-107.82
X114.7Y-110.36
X114.7Y-112.9
X114.7Y-115.44
X114.7Y-117.98
X114.7Y-120.52
X114.7Y-123.06
X114.7Y-125.6
X114.7Y-128.14
X114.7Y-130.68
X114.7Y-133.22
X114.7Y-135.76
X114.7Y-138.3
X114.7Y-140.84
X114.7Y-143.38
X114.7Y-145.92
X114.7Y-148.46
X114.7Y-151.0
X114.7Y-153.54
X114.7Y-156.08
X114.7Y-158.62
X114.7Y-161.16
X114.7Y-171.32
X114.7Y-173.86
X114.7Y-176.4
X114.7Y-178.94
X114.7Y-181.48
X114.7Y-184.02
X114.7Y-186.56
X114.7Y-189.1
X114.7Y-191.64
X114.7Y-194.18
X114.7Y-196.72
X114.7Y-199.26
X114.7Y-201.8
X114.7Y-204.34
X114.7Y-206.88
X114.7Y-209.42
X114.7Y-211.96
X114.7Y-214.5
X119.78Y-84.96
X119.78Y-87.5
X119.78Y-90.04
X119.78Y-92.58
X119.78Y-95.12
X119.78Y-97.66
X119.78Y-100.2
X119.78Y-102.74
X119.78Y-105.28
X119.78Y-107.82
X119.78Y-110.36
X119.78Y-112.9
X119.78Y-115.44
X119.78Y-117.98
X119.78Y-120.52
X119.78Y-123.06
X119.78Y-125.6
X119.78Y-128.14
X119.78Y-130.68
X119.78Y-133.22
X119.78Y-135.76
X119.78Y-138.3
X119.78Y-140.84
X119.78Y-143.38
X119.78Y-145.92
X119.78Y-148.46
X119.78Y-151.0
X119.78Y-153.54
X119.78Y-156.08
X119.78Y-158.62
X119.78Y-161.16
X119.78Y-171.32
X119.78Y-173.86
X119.78Y-176.4
X119.78Y-178.94
X119.78Y-181.48
X119.78Y-184.02
X119.78Y-186.56
X119.78Y-189.1
X119.78Y-191.64
X119.78Y-194.18
X119.78Y-196.72
X119.78Y-199.26
X119.78Y-201.8
X119.78Y-204.34
X119.78Y-206.88
X119.78Y-209.42
X119.78Y-211.96
X119.78Y-214.5
X134.45Y-84.95
X134.45Y-87.49
X134.45Y-90.03
X134.45Y-92.57
X134.45Y-95.11
X134.45Y-97.65
X134.45Y-100.19
X134.45Y-102.73
X134.45Y-105.27
X134.45Y-107.81
X134.45Y-110.35
X134.45Y-112.89
X134.45Y-115.43
X134.45Y-117.97
X134.45Y-120.51
X134.45Y-123.05
X134.45Y-125.59
X134.45Y-128.13
X134.45Y-130.67
X134.45Y-133.21
X134.45Y-135.75
X134.45Y-138.29
X134.45Y-140.83
X134.45Y-143.37
X134.45Y-145.91
X134.45Y-148.45
X134.45Y-150.99
X134.45Y-153.53
X134.45Y-156.07
X134.45Y-158.61
X134.45Y-161.15
X134.45Y-171.31
X134.45Y-173.85
X134.45Y-176.39
X134.45Y-178.93
X134.45Y-181.47
X134.45Y-184.01
X134.45Y-186.55
X134.45Y-189.09
X134.45Y-191.63
X134.45Y-194.17
X134.45Y-196.71
X134.45Y-199.25
X134.45Y-201.79
X134.45Y-204.33
X134.45Y-206.87
X134.45Y-209.41
X134.45Y-211.95
X134.45Y-214.49
X139.53Y-84.95
X139.53Y-87.49
X139.53Y-90.03
X139.53Y-92.57
X139.53Y-95.11
X139.53Y-97.65
X139.53Y-100.19
X139.53Y-102.73
X139.53Y-105.27
X139.53Y-107.81
X139.53Y-110.35
X139.53Y-112.89
X139.53Y-115.43
X139.53Y-117.97
X139.53Y-120.51
X139.53Y-123.05
X139.53Y-125.59
X139.53Y-128.13
X139.53Y-130.67
X139.53Y-133.21
X139.53Y-135.75
X139.53Y-138.29
X139.53Y-140.83
X139.53Y-143.37
X139.53Y-145.91
X139.53Y-148.45
X139.53Y-150.99
X139.53Y-153.53
X139.53Y-156.07
X139.53Y-158.61
X139.53Y-161.15
X139.53Y-171.31
X139.53Y-173.85
X139.53Y-176.39
X139.53Y-178.93
X139.53Y-181.47
X139.53Y-184.01
X139.53Y-186.55
X139.53Y-189.09
X139.53Y-191.63
X139.53Y-194.17
X139.53Y-196.71
X139.53Y-199.25
X139.53Y-201.79
X139.53Y-204.33
X139.53Y-206.87
X139.53Y-209.41
X139.53Y-211.95
X139.53Y-214.49
X154.19Y-84.96
X154.19Y-87.5
X154.19Y-90.04
X154.19Y-92.58
X154.19Y-95.12
X154.19Y-97.66
X154.19Y-100.2
X154.19Y-102.74
X154.19Y-105.28
X154.19Y-107.82
X154.19Y-110.36
X154.19Y-112.9
X154.19Y-115.44
X154.19Y-117.98
X154.19Y-120.52
X154.19Y-123.06
X154.19Y-125.6
X154.19Y-128.14
X154.19Y-130.68
X154.19Y-133.22
X154.19Y-135.76
X154.19Y-138.3
X154.19Y-140.84
X154.19Y-143.38
X154.19Y-145.92
X154.19Y-148.46
X154.19Y-151.0
X154.19Y-153.54
X154.19Y-156.08
X154.19Y-158.62
X154.19Y-161.16
X154.19Y-171.32
X154.19Y-173.86
X154.19Y-176.4
X154.19Y-178.94
X154.19Y-181.48
X154.19Y-184.02
X154.19Y-186.56
X154.19Y-189.1
X154.19Y-191.64
X154.19Y-194.18
X154.19Y-196.72
X154.19Y-199.26
X154.19Y-201.8
X154.19Y-204.34
X154.19Y-206.88
X154.19Y-209.42
X154.19Y-211.96
X154.19Y-214.5
X159.27Y-84.96
X159.27Y-87.5
X159.27Y-90.04
X159.27Y-92.58
X159.27Y-95.12
X159.27Y-97.66
X159.27Y-100.2
X159.27Y-102.74
X159.27Y-105.28
X159.27Y-107.82
X159.27Y-110.36
X159.27Y-112.9
X159.27Y-115.44
X159.27Y-117.98
X159.27Y-120.52
X159.27Y-123.06
X159.27Y-125.6
X159.27Y-128.14
X159.27Y-130.68
X159.27Y-133.22
X159.27Y-135.76
X159.27Y-138.3
X159.27Y-140.84
X159.27Y-143.38
X159.27Y-145.92
X159.27Y-148.46
X159.27Y-151.0
X159.27Y-153.54
X159.27Y-156.08
X159.27Y-158.62
X159.27Y-161.16
X159.27Y-171.32
X159.27Y-173.86
X159.27Y-176.4
X159.27Y-178.94
X159.27Y-181.48
X159.27Y-184.02
X159.27Y-186.56
X159.27Y-189.1
X159.27Y-191.64
X159.27Y-194.18
X159.27Y-196.72
X159.27Y-199.26
X159.27Y-201.8
X159.27Y-204.34
X159.27Y-206.88
X159.27Y-209.42
X159.27Y-211.96
X159.27Y-214.5
X173.93Y-84.96
X173.93Y-87.5
X173.93Y-90.04
X173.93Y-92.58
X173.93Y-95.12
X173.93Y-97.66
X173.93Y-100.2
X173.93Y-102.74
X173.93Y-105.28
X173.93Y-107.82
X173.93Y-110.36
X173.93Y-112.9
X173.93Y-115.44
X173.93Y-117.98
X173.93Y-120.52
X173.93Y-123.06
X173.93Y-125.6
X173.93Y-128.14
X173.93Y-130.68
X173.93Y-133.22
X173.93Y-135.76
X173.93Y-138.3
X173.93Y-140.84
X173.93Y-143.38
X173.93Y-145.92
X173.93Y-148.46
X173.93Y-151.0
X173.93Y-153.54
X173.93Y-156.08
X173.93Y-158.62
X173.93Y-161.16
X173.93Y-171.32
X173.93Y-173.86
X173.93Y-176.4
X173.93Y-178.94
X173.93Y-181.48
X173.93Y-184.02
X173.93Y-186.56
X173.93Y-189.1
X173.93Y-191.64
X173.93Y-194.18
X173.93Y-196.72
X173.93Y-199.26
X173.93Y-201.8
X173.93Y-204.34
X173.93Y-206.88
X173.93Y-209.42
X173.93Y-211.96
X173.93Y-214.5
X179.01Y-84.96
X179.01Y-87.5
X179.01Y-90.04
X179.01Y-92.58
X179.01Y-95.12
X179.01Y-97.66
X179.01Y-100.2
X179.01Y-102.74
X179.01Y-105.28
X179.01Y-107.82
X179.01Y-110.36
X179.01Y-112.9
X179.01Y-115.44
X179.01Y-117.98
X179.01Y-120.52
X179.01Y-123.06
X179.01Y-125.6
X179.01Y-128.14
X179.01Y-130.68
X179.01Y-133.22
X179.01Y-135.76
X179.01Y-138.3
X179.01Y-140.84
X179.01Y-143.38
X179.01Y-145.92
X179.01Y-148.46
X179.01Y-151.0
X179.01Y-153.54
X179.01Y-156.08
X179.01Y-158.62
X179.01Y-161.16
X179.01Y-171.32
X179.01Y-173.86
X179.01Y-176.4
X179.01Y-178.94
X179.01Y-181.48
X179.01Y-184.02
X179.01Y-186.56
X179.01Y-189.1
X179.01Y-191.64
X179.01Y-194.18
X179.01Y-196.72
X179.01Y-199.26
X179.01Y-201.8
X179.01Y-204.34
X179.01Y-206.88
X179.01Y-209.42
X179.01Y-211.96
X179.01Y-214.5
X193.68Y-84.96
X193.68Y-87.5
X193.68Y-90.04
X193.68Y-92.58
X193.68Y-95.12
X193.68Y-97.66
X193.68Y-100.2
X193.68Y-102.74
X193.68Y-105.28
X193.68Y-107.82
X193.68Y-110.36
X193.68Y-112.9
X193.68Y-115.44
X193.68Y-117.98
X193.68Y-120.52
X193.68Y-123.06
X193.68Y-125.6
X193.68Y-128.14
X193.68Y-130.68
X193.68Y-133.22
X193.68Y-135.76
X193.68Y-138.3
X193.68Y-140.84
X193.68Y-143.38
X193.68Y-145.92
X193.68Y-148.46
X193.68Y-151.0
X193.68Y-153.54
X193.68Y-156.08
X193.68Y-158.62
X193.68Y-161.16
X193.68Y-171.32
X193.68Y-173.86
X193.68Y-176.4
X193.68Y-178.94
X193.68Y-181.48
X193.68Y-184.02
X193.68Y-186.56
X193.68Y-189.1
X193.68Y-191.64
X193.68Y-194.18
X193.68Y-196.72
X193.68Y-199.26
X193.68Y-201.8
X193.68Y-204.34
X193.68Y-206.88
X193.68Y-209.42
X193.68Y-211.96
X193.68Y-214.5
X198.76Y-84.96
X198.76Y-87.5
X198.76Y-90.04
X198.76Y-92.58
X198.76Y-95.12
X198.76Y-97.66
X198.76Y-100.2
X198.76Y-102.74
X198.76Y-105.28
X198.76Y-107.82
X198.76Y-110.36
X198.76Y-112.9
X198.76Y-115.44
X198.76Y-117.98
X198.76Y-120.52
X198.76Y-123.06
X198.76Y-125.6
X198.76Y-128.14
X198.76Y-130.68
X198.76Y-133.22
X198.76Y-135.76
X198.76Y-138.3
X198.76Y-140.84
X198.76Y-143.38
X198.76Y-145.92
X198.76Y-148.46
X198.76Y-151.0
X198.76Y-153.54
X198.76Y-156.08
X198.76Y-158.62
X198.76Y-161.16
X198.76Y-171.32
X198.76Y-173.86
X198.76Y-176.4
X198.76Y-178.94
X198.76Y-181.48
X198.76Y-184.02
X198.76Y-186.56
X198.76Y-189.1
X198.76Y-191.64
X198.76Y-194.18
X198.76Y-196.72
X198.76Y-199.26
X198.76Y-201.8
X198.76Y-204.34
X198.76Y-206.88
X198.76Y-209.42
X198.76Y-211.96
X198.76Y-214.5
X208.25Y-228.51
X208.25Y-233.59
X213.42Y-84.96
X213.42Y-87.5
X213.42Y-90.04
X213.42Y-92.58
X213.42Y-95.12
X213.42Y-97.66
X213.42Y-100.2
X213.42Y-102.74
X213.42Y-105.28
X213.42Y-107.82
X213.42Y-110.36
X213.42Y-112.9
X213.42Y-115.44
X213.42Y-117.98
X213.42Y-120.52
X213.42Y-123.06
X213.42Y-125.6
X213.42Y-128.14
X213.42Y-130.68
X213.42Y-133.22
X213.42Y-135.76
X213.42Y-138.3
X213.42Y-140.84
X213.42Y-143.38
X213.42Y-145.92
X213.42Y-148.46
X213.42Y-151.0
X213.42Y-153.54
X213.42Y-156.08
X213.42Y-158.62
X213.42Y-161.16
X213.42Y-171.32
X213.42Y-173.86
X213.42Y-176.4
X213.42Y-178.94
X213.42Y-181.48
X213.42Y-184.02
X213.42Y-186.56
X213.42Y-189.1
X213.42Y-191.64
X213.42Y-194.18
X213.42Y-196.72
X213.42Y-199.26
X213.42Y-201.8
X213.42Y-204.34
X213.42Y-206.88
X213.42Y-209.42
X213.42Y-211.96
X213.42Y-214.5
X218.5Y-84.96
X218.5Y-87.5
X218.5Y-90.04
X218.5Y-92.58
X218.5Y-95.12
X218.5Y-97.66
X218.5Y-100.2
X218.5Y-102.74
X218.5Y-105.28
X218.5Y-107.82
X218.5Y-110.36
X218.5Y-112.9
X218.5Y-115.44
X218.5Y-117.98
X218.5Y-120.52
X218.5Y-123.06
X218.5Y-125.6
X218.5Y-128.14
X218.5Y-130.68
X218.5Y-133.22
X218.5Y-135.76
X218.5Y-138.3
X218.5Y-140.84
X218.5Y-143.38
X218.5Y-145.92
X218.5Y-148.46
X218.5Y-151.0
X218.5Y-153.54
X218.5Y-156.08
X218.5Y-158.62
X218.5Y-161.16
X218.5Y-171.32
X218.5Y-173.86
X218.5Y-176.4
X218.5Y-178.94
X218.5Y-181.48
X218.5Y-184.02
X218.5Y-186.56
X218.5Y-189.1
X218.5Y-191.64
X218.5Y-194.18
X218.5Y-196.72
X218.5Y-199.26
X218.5Y-201.8
X218.5Y-204.34
X218.5Y-206.88
X218.5Y-209.42
X218.5Y-211.96
X218.5Y-214.5
X272.2Y-84.76
X272.2Y-89.84
X272.2Y-95.46
X272.2Y-100.54
X272.3Y-66.46
X272.3Y-71.54
X272.36Y-241.15
X277.44Y-241.15
X292.325Y-199.37
X292.325Y-204.45
X314.6Y-63.7
X314.6Y-68.78
X319.0Y-63.66
X319.0Y-68.74
X323.3Y-63.66
X323.3Y-68.74
X324.2Y-199.36
X324.2Y-204.44
X328.46Y-214.15
X329.61Y-241.0
X332.15Y-241.0
X333.54Y-214.15
X333.55Y-63.7
X333.55Y-68.78
X337.23Y-241.0
X337.9Y-63.71
X337.9Y-68.79
X339.77Y-241.0
X341.9Y-147.66
X341.9Y-152.74
X342.25Y-63.71
X342.25Y-68.79
X343.36Y-214.15
X344.85Y-241.0
X346.61Y-152.812
X346.61Y-162.45
X346.62Y-113.2
X347.39Y-241.0
X348.44Y-214.15
X349.15Y-152.812
X349.15Y-162.45
X349.16Y-113.2
X351.69Y-152.812
X351.69Y-162.45
X351.7Y-113.2
X356.4Y-147.66
X356.4Y-152.74
X359.03Y-202.65
X364.11Y-202.65
T14
X299.035Y-241.075
X301.575Y-241.075
X304.115Y-241.075
X308.6Y-241.1
X311.14Y-241.1
X313.68Y-241.1
T15
X373.5Y-126.92
X373.5Y-131.12
X373.5Y-135.32
X373.5Y-139.52
X373.5Y-143.72
X373.5Y-147.92
X373.5Y-152.12
X373.5Y-156.32
X373.5Y-160.52
X373.5Y-164.72
X373.5Y-168.92
X373.5Y-173.12
X379.0Y-126.92
X379.0Y-131.12
X379.0Y-135.32
X379.0Y-139.52
X379.0Y-143.72
X379.0Y-147.92
X379.0Y-152.12
X379.0Y-156.32
X379.0Y-160.52
X379.0Y-164.72
X379.0Y-168.92
X379.0Y-173.12
T16
X349.15Y-135.032
T17
X248.88Y-109.46
X248.88Y-189.47
X334.61Y-113.27
X334.61Y-186.93
T18
X105.545Y-69.708
X105.735Y-224.648
X184.285Y-69.708
X184.475Y-224.648
X230.005Y-69.793
X248.8Y-99.375
X248.85Y-199.475
X387.675Y-92.568
X387.675Y-224.648
M30
