G04 #@! TF.GenerationSoftware,KiCad,Pcbnew,8.0.5*
G04 #@! TF.CreationDate,2024-09-20T21:49:53-04:00*
G04 #@! TF.ProjectId,ISA_PC104 Backplane,4953415f-5043-4313-9034-204261636b70,rev?*
G04 #@! TF.SameCoordinates,Original*
G04 #@! TF.FileFunction,Soldermask,Top*
G04 #@! TF.FilePolarity,Negative*
%FSLAX46Y46*%
G04 Gerber Fmt 4.6, Leading zero omitted, Abs format (unit mm)*
G04 Created by KiCad (PCBNEW 8.0.5) date 2024-09-20 21:49:53*
%MOMM*%
%LPD*%
G01*
G04 APERTURE LIST*
G04 Aperture macros list*
%AMRoundRect*
0 Rectangle with rounded corners*
0 $1 Rounding radius*
0 $2 $3 $4 $5 $6 $7 $8 $9 X,Y pos of 4 corners*
0 Add a 4 corners polygon primitive as box body*
4,1,4,$2,$3,$4,$5,$6,$7,$8,$9,$2,$3,0*
0 Add four circle primitives for the rounded corners*
1,1,$1+$1,$2,$3*
1,1,$1+$1,$4,$5*
1,1,$1+$1,$6,$7*
1,1,$1+$1,$8,$9*
0 Add four rect primitives between the rounded corners*
20,1,$1+$1,$2,$3,$4,$5,0*
20,1,$1+$1,$4,$5,$6,$7,0*
20,1,$1+$1,$6,$7,$8,$9,0*
20,1,$1+$1,$8,$9,$2,$3,0*%
G04 Aperture macros list end*
%ADD10C,0.110000*%
%ADD11O,2.284000X1.244000*%
%ADD12R,1.800000X1.800000*%
%ADD13C,1.800000*%
%ADD14R,1.600000X1.600000*%
%ADD15C,1.600000*%
%ADD16R,1.500000X1.500000*%
%ADD17C,1.500000*%
%ADD18C,0.900000*%
%ADD19C,8.600000*%
%ADD20O,1.400000X2.400000*%
%ADD21C,1.701800*%
%ADD22O,2.400000X1.200000*%
%ADD23RoundRect,0.250000X-0.650000X0.325000X-0.650000X-0.325000X0.650000X-0.325000X0.650000X0.325000X0*%
%ADD24O,1.600000X1.600000*%
%ADD25R,1.397000X1.397000*%
%ADD26C,1.397000*%
%ADD27C,6.350000*%
%ADD28R,1.700000X1.700000*%
%ADD29O,1.700000X1.700000*%
%ADD30O,1.500000X2.400000*%
%ADD31O,1.300000X2.400000*%
%ADD32O,1.200000X2.400000*%
%ADD33C,1.700000*%
%ADD34RoundRect,0.250000X0.650000X-0.325000X0.650000X0.325000X-0.650000X0.325000X-0.650000X-0.325000X0*%
%ADD35R,1.524000X1.524000*%
%ADD36C,2.800000*%
%ADD37O,2.400000X1.214000*%
%ADD38R,8.890000X8.890000*%
%ADD39O,1.524000X3.000000*%
%ADD40O,2.604000X1.404000*%
%ADD41R,1.600000X1.400000*%
G04 APERTURE END LIST*
D10*
X89431891Y-247407280D02*
X89589034Y-247459660D01*
X89589034Y-247459660D02*
X89850939Y-247459660D01*
X89850939Y-247459660D02*
X89955701Y-247407280D01*
X89955701Y-247407280D02*
X90008082Y-247354899D01*
X90008082Y-247354899D02*
X90060463Y-247250137D01*
X90060463Y-247250137D02*
X90060463Y-247145375D01*
X90060463Y-247145375D02*
X90008082Y-247040613D01*
X90008082Y-247040613D02*
X89955701Y-246988232D01*
X89955701Y-246988232D02*
X89850939Y-246935851D01*
X89850939Y-246935851D02*
X89641415Y-246883470D01*
X89641415Y-246883470D02*
X89536653Y-246831089D01*
X89536653Y-246831089D02*
X89484272Y-246778708D01*
X89484272Y-246778708D02*
X89431891Y-246673946D01*
X89431891Y-246673946D02*
X89431891Y-246569184D01*
X89431891Y-246569184D02*
X89484272Y-246464422D01*
X89484272Y-246464422D02*
X89536653Y-246412041D01*
X89536653Y-246412041D02*
X89641415Y-246359660D01*
X89641415Y-246359660D02*
X89903320Y-246359660D01*
X89903320Y-246359660D02*
X90060463Y-246412041D01*
X90531891Y-247459660D02*
X90531891Y-246359660D01*
X90531891Y-246359660D02*
X90950939Y-246359660D01*
X90950939Y-246359660D02*
X91055701Y-246412041D01*
X91055701Y-246412041D02*
X91108082Y-246464422D01*
X91108082Y-246464422D02*
X91160463Y-246569184D01*
X91160463Y-246569184D02*
X91160463Y-246726327D01*
X91160463Y-246726327D02*
X91108082Y-246831089D01*
X91108082Y-246831089D02*
X91055701Y-246883470D01*
X91055701Y-246883470D02*
X90950939Y-246935851D01*
X90950939Y-246935851D02*
X90531891Y-246935851D01*
X91631891Y-246883470D02*
X91998558Y-246883470D01*
X92155701Y-247459660D02*
X91631891Y-247459660D01*
X91631891Y-247459660D02*
X91631891Y-246359660D01*
X91631891Y-246359660D02*
X92155701Y-246359660D01*
X93255701Y-247354899D02*
X93203320Y-247407280D01*
X93203320Y-247407280D02*
X93046177Y-247459660D01*
X93046177Y-247459660D02*
X92941415Y-247459660D01*
X92941415Y-247459660D02*
X92784272Y-247407280D01*
X92784272Y-247407280D02*
X92679510Y-247302518D01*
X92679510Y-247302518D02*
X92627129Y-247197756D01*
X92627129Y-247197756D02*
X92574748Y-246988232D01*
X92574748Y-246988232D02*
X92574748Y-246831089D01*
X92574748Y-246831089D02*
X92627129Y-246621565D01*
X92627129Y-246621565D02*
X92679510Y-246516803D01*
X92679510Y-246516803D02*
X92784272Y-246412041D01*
X92784272Y-246412041D02*
X92941415Y-246359660D01*
X92941415Y-246359660D02*
X93046177Y-246359660D01*
X93046177Y-246359660D02*
X93203320Y-246412041D01*
X93203320Y-246412041D02*
X93255701Y-246464422D01*
X93727129Y-247459660D02*
X93727129Y-246359660D01*
X94198558Y-247145375D02*
X94722368Y-247145375D01*
X94093796Y-247459660D02*
X94460463Y-246359660D01*
X94460463Y-246359660D02*
X94827130Y-247459660D01*
X95717606Y-247459660D02*
X95193796Y-247459660D01*
X95193796Y-247459660D02*
X95193796Y-246359660D01*
X97289034Y-246883470D02*
X96922367Y-246883470D01*
X96922367Y-247459660D02*
X96922367Y-246359660D01*
X96922367Y-246359660D02*
X97446177Y-246359660D01*
X97865224Y-246883470D02*
X98231891Y-246883470D01*
X98389034Y-247459660D02*
X97865224Y-247459660D01*
X97865224Y-247459660D02*
X97865224Y-246359660D01*
X97865224Y-246359660D02*
X98389034Y-246359660D01*
X98808081Y-247145375D02*
X99331891Y-247145375D01*
X98703319Y-247459660D02*
X99069986Y-246359660D01*
X99069986Y-246359660D02*
X99436653Y-247459660D01*
X99646176Y-246359660D02*
X100274748Y-246359660D01*
X99960462Y-247459660D02*
X99960462Y-246359660D01*
X100641414Y-246359660D02*
X100641414Y-247250137D01*
X100641414Y-247250137D02*
X100693795Y-247354899D01*
X100693795Y-247354899D02*
X100746176Y-247407280D01*
X100746176Y-247407280D02*
X100850938Y-247459660D01*
X100850938Y-247459660D02*
X101060462Y-247459660D01*
X101060462Y-247459660D02*
X101165224Y-247407280D01*
X101165224Y-247407280D02*
X101217605Y-247354899D01*
X101217605Y-247354899D02*
X101269986Y-247250137D01*
X101269986Y-247250137D02*
X101269986Y-246359660D01*
X102422367Y-247459660D02*
X102055700Y-246935851D01*
X101793795Y-247459660D02*
X101793795Y-246359660D01*
X101793795Y-246359660D02*
X102212843Y-246359660D01*
X102212843Y-246359660D02*
X102317605Y-246412041D01*
X102317605Y-246412041D02*
X102369986Y-246464422D01*
X102369986Y-246464422D02*
X102422367Y-246569184D01*
X102422367Y-246569184D02*
X102422367Y-246726327D01*
X102422367Y-246726327D02*
X102369986Y-246831089D01*
X102369986Y-246831089D02*
X102317605Y-246883470D01*
X102317605Y-246883470D02*
X102212843Y-246935851D01*
X102212843Y-246935851D02*
X101793795Y-246935851D01*
X102893795Y-246883470D02*
X103260462Y-246883470D01*
X103417605Y-247459660D02*
X102893795Y-247459660D01*
X102893795Y-247459660D02*
X102893795Y-246359660D01*
X102893795Y-246359660D02*
X103417605Y-246359660D01*
X105355700Y-247354899D02*
X105303319Y-247407280D01*
X105303319Y-247407280D02*
X105146176Y-247459660D01*
X105146176Y-247459660D02*
X105041414Y-247459660D01*
X105041414Y-247459660D02*
X104884271Y-247407280D01*
X104884271Y-247407280D02*
X104779509Y-247302518D01*
X104779509Y-247302518D02*
X104727128Y-247197756D01*
X104727128Y-247197756D02*
X104674747Y-246988232D01*
X104674747Y-246988232D02*
X104674747Y-246831089D01*
X104674747Y-246831089D02*
X104727128Y-246621565D01*
X104727128Y-246621565D02*
X104779509Y-246516803D01*
X104779509Y-246516803D02*
X104884271Y-246412041D01*
X104884271Y-246412041D02*
X105041414Y-246359660D01*
X105041414Y-246359660D02*
X105146176Y-246359660D01*
X105146176Y-246359660D02*
X105303319Y-246412041D01*
X105303319Y-246412041D02*
X105355700Y-246464422D01*
X106455700Y-247459660D02*
X106089033Y-246935851D01*
X105827128Y-247459660D02*
X105827128Y-246359660D01*
X105827128Y-246359660D02*
X106246176Y-246359660D01*
X106246176Y-246359660D02*
X106350938Y-246412041D01*
X106350938Y-246412041D02*
X106403319Y-246464422D01*
X106403319Y-246464422D02*
X106455700Y-246569184D01*
X106455700Y-246569184D02*
X106455700Y-246726327D01*
X106455700Y-246726327D02*
X106403319Y-246831089D01*
X106403319Y-246831089D02*
X106350938Y-246883470D01*
X106350938Y-246883470D02*
X106246176Y-246935851D01*
X106246176Y-246935851D02*
X105827128Y-246935851D01*
X106927128Y-246883470D02*
X107293795Y-246883470D01*
X107450938Y-247459660D02*
X106927128Y-247459660D01*
X106927128Y-247459660D02*
X106927128Y-246359660D01*
X106927128Y-246359660D02*
X107450938Y-246359660D01*
X107922366Y-246883470D02*
X108289033Y-246883470D01*
X108446176Y-247459660D02*
X107922366Y-247459660D01*
X107922366Y-247459660D02*
X107922366Y-246359660D01*
X107922366Y-246359660D02*
X108446176Y-246359660D01*
X108917604Y-247459660D02*
X108917604Y-246359660D01*
X108917604Y-246359660D02*
X109336652Y-246359660D01*
X109336652Y-246359660D02*
X109441414Y-246412041D01*
X109441414Y-246412041D02*
X109493795Y-246464422D01*
X109493795Y-246464422D02*
X109546176Y-246569184D01*
X109546176Y-246569184D02*
X109546176Y-246726327D01*
X109546176Y-246726327D02*
X109493795Y-246831089D01*
X109493795Y-246831089D02*
X109441414Y-246883470D01*
X109441414Y-246883470D02*
X109336652Y-246935851D01*
X109336652Y-246935851D02*
X108917604Y-246935851D01*
X110855699Y-246883470D02*
X111222366Y-246883470D01*
X111379509Y-247459660D02*
X110855699Y-247459660D01*
X110855699Y-247459660D02*
X110855699Y-246359660D01*
X110855699Y-246359660D02*
X111379509Y-246359660D01*
X111850937Y-247459660D02*
X111850937Y-246359660D01*
X111850937Y-246359660D02*
X112112842Y-246359660D01*
X112112842Y-246359660D02*
X112269985Y-246412041D01*
X112269985Y-246412041D02*
X112374747Y-246516803D01*
X112374747Y-246516803D02*
X112427128Y-246621565D01*
X112427128Y-246621565D02*
X112479509Y-246831089D01*
X112479509Y-246831089D02*
X112479509Y-246988232D01*
X112479509Y-246988232D02*
X112427128Y-247197756D01*
X112427128Y-247197756D02*
X112374747Y-247302518D01*
X112374747Y-247302518D02*
X112269985Y-247407280D01*
X112269985Y-247407280D02*
X112112842Y-247459660D01*
X112112842Y-247459660D02*
X111850937Y-247459660D01*
X112950937Y-247459660D02*
X112950937Y-246359660D01*
X113317604Y-246359660D02*
X113946176Y-246359660D01*
X113631890Y-247459660D02*
X113631890Y-246359660D01*
X114312842Y-247459660D02*
X114312842Y-246359660D01*
X115046176Y-246359660D02*
X115255700Y-246359660D01*
X115255700Y-246359660D02*
X115360462Y-246412041D01*
X115360462Y-246412041D02*
X115465224Y-246516803D01*
X115465224Y-246516803D02*
X115517605Y-246726327D01*
X115517605Y-246726327D02*
X115517605Y-247092994D01*
X115517605Y-247092994D02*
X115465224Y-247302518D01*
X115465224Y-247302518D02*
X115360462Y-247407280D01*
X115360462Y-247407280D02*
X115255700Y-247459660D01*
X115255700Y-247459660D02*
X115046176Y-247459660D01*
X115046176Y-247459660D02*
X114941414Y-247407280D01*
X114941414Y-247407280D02*
X114836652Y-247302518D01*
X114836652Y-247302518D02*
X114784271Y-247092994D01*
X114784271Y-247092994D02*
X114784271Y-246726327D01*
X114784271Y-246726327D02*
X114836652Y-246516803D01*
X114836652Y-246516803D02*
X114941414Y-246412041D01*
X114941414Y-246412041D02*
X115046176Y-246359660D01*
X115989033Y-247459660D02*
X115989033Y-246359660D01*
X115989033Y-246359660D02*
X116617605Y-247459660D01*
X116617605Y-247459660D02*
X116617605Y-246359660D01*
D11*
X373700000Y-228940000D03*
X373700000Y-230210000D03*
X373700000Y-231480000D03*
D12*
X213215000Y-240090000D03*
D13*
X215755000Y-240090000D03*
D14*
X212465000Y-233590000D03*
D15*
X223895000Y-233590000D03*
X367250000Y-214520000D03*
D14*
X355820000Y-214520000D03*
X355815000Y-211190000D03*
D15*
X367245000Y-211190000D03*
D16*
X356600000Y-232760000D03*
D17*
X366500000Y-232760000D03*
D18*
X226780361Y-69792716D03*
X227724942Y-67512297D03*
X227724942Y-72073135D03*
X230005361Y-66567716D03*
D19*
X230005361Y-69792716D03*
D18*
X230005361Y-73017716D03*
X232285780Y-67512297D03*
X232285780Y-72073135D03*
X233230361Y-69792716D03*
D14*
X242435000Y-228500000D03*
D15*
X253865000Y-228500000D03*
D20*
X366100000Y-155800000D03*
X361100000Y-155800000D03*
D21*
X272200000Y-100540000D03*
X272200000Y-95460000D03*
X323300000Y-68740000D03*
X323300000Y-63660000D03*
D22*
X146800000Y-107565000D03*
X146800000Y-105025000D03*
D21*
X319000000Y-68740000D03*
X319000000Y-63660000D03*
D23*
X263150000Y-131050000D03*
X263150000Y-134000000D03*
D21*
X364110000Y-202650000D03*
X359030000Y-202650000D03*
D14*
X276705000Y-76700000D03*
D24*
X279245000Y-76700000D03*
X281785000Y-76700000D03*
X284325000Y-76700000D03*
X286865000Y-76700000D03*
X289405000Y-76700000D03*
D21*
X272300000Y-71540000D03*
X272300000Y-66460000D03*
D14*
X355830000Y-221160000D03*
D15*
X367260000Y-221160000D03*
D22*
X127100000Y-98800000D03*
X127100000Y-101340000D03*
D14*
X374000000Y-72100000D03*
D24*
X374000000Y-74640000D03*
X374000000Y-77180000D03*
X374000000Y-79720000D03*
X374000000Y-82260000D03*
X374000000Y-84800000D03*
X374000000Y-87340000D03*
X374000000Y-89880000D03*
D12*
X220700000Y-240120000D03*
D13*
X223240000Y-240120000D03*
D22*
X205890000Y-92550000D03*
X205890000Y-95090000D03*
D14*
X108780000Y-105260000D03*
D24*
X108780000Y-107800000D03*
X108780000Y-110340000D03*
X108780000Y-112880000D03*
X108780000Y-115420000D03*
X108780000Y-117960000D03*
D22*
X186300000Y-98750000D03*
X186300000Y-101290000D03*
X166500000Y-98725000D03*
X166500000Y-101265000D03*
X225540000Y-89040000D03*
X225540000Y-86500000D03*
D14*
X212485000Y-228475000D03*
D15*
X223915000Y-228475000D03*
D18*
X184285390Y-72932999D03*
X182004971Y-71988418D03*
X186565809Y-71988418D03*
X181060390Y-69707999D03*
D19*
X184285390Y-69707999D03*
D18*
X187510390Y-69707999D03*
X182004971Y-67427580D03*
X186565809Y-67427580D03*
X184285390Y-66482999D03*
D22*
X205900000Y-88900000D03*
X205900000Y-86360000D03*
X166500000Y-88870000D03*
X166500000Y-86330000D03*
D25*
X297005000Y-215250000D03*
D26*
X297005000Y-217790000D03*
X297005000Y-220330000D03*
X297005000Y-222870000D03*
X297005000Y-225410000D03*
X297005000Y-227950000D03*
X297005000Y-230490000D03*
X304625000Y-230490000D03*
X304625000Y-227950000D03*
X304625000Y-225410000D03*
X304625000Y-222870000D03*
X304625000Y-220330000D03*
X304625000Y-217790000D03*
X304625000Y-215250000D03*
D20*
X366078849Y-132857869D03*
X361078849Y-132857869D03*
D22*
X225550000Y-92700000D03*
X225550000Y-95240000D03*
D14*
X227510000Y-233550000D03*
D15*
X238940000Y-233550000D03*
D21*
X333550000Y-63700000D03*
X333550000Y-68780000D03*
D22*
X127070000Y-156070000D03*
X127070000Y-158610000D03*
D27*
X334610000Y-186930000D03*
X334610000Y-113270000D03*
X248880000Y-189470000D03*
X248880000Y-109460000D03*
D28*
X253960000Y-110730000D03*
D29*
X253960000Y-113270000D03*
X253960000Y-115810000D03*
X253960000Y-118350000D03*
X253960000Y-120890000D03*
X253960000Y-123430000D03*
X253960000Y-125970000D03*
X253960000Y-128510000D03*
X253960000Y-131050000D03*
X253960000Y-133590000D03*
X253960000Y-136130000D03*
X253960000Y-138670000D03*
X253960000Y-141210000D03*
X253960000Y-143750000D03*
X253960000Y-146290000D03*
X253960000Y-148830000D03*
X253960000Y-151370000D03*
X253960000Y-153910000D03*
X253960000Y-156450000D03*
X253960000Y-158990000D03*
X253960000Y-161530000D03*
X253960000Y-164070000D03*
X253960000Y-166610000D03*
X253960000Y-169150000D03*
X253960000Y-171690000D03*
X253960000Y-174230000D03*
X253960000Y-176770000D03*
X253960000Y-179310000D03*
X253960000Y-181850000D03*
X253960000Y-184390000D03*
X253960000Y-186930000D03*
X253960000Y-189470000D03*
D28*
X256500000Y-110730000D03*
D29*
X256500000Y-113270000D03*
X256500000Y-115810000D03*
X256500000Y-118350000D03*
X256500000Y-120890000D03*
X256500000Y-123430000D03*
X256500000Y-125970000D03*
X256500000Y-128510000D03*
X256500000Y-131050000D03*
X256500000Y-133590000D03*
X256500000Y-136130000D03*
X256500000Y-138670000D03*
X256500000Y-141210000D03*
X256500000Y-143750000D03*
X256500000Y-146290000D03*
X256500000Y-148830000D03*
X256500000Y-151370000D03*
X256500000Y-153910000D03*
X256500000Y-156450000D03*
X256500000Y-158990000D03*
X256500000Y-161530000D03*
X256500000Y-164070000D03*
X256500000Y-166610000D03*
X256500000Y-169150000D03*
X256500000Y-171690000D03*
X256500000Y-174230000D03*
X256500000Y-176770000D03*
X256500000Y-179310000D03*
X256500000Y-181850000D03*
X256500000Y-184390000D03*
X256500000Y-186930000D03*
X256500000Y-189470000D03*
X251420000Y-131050000D03*
D28*
X251420000Y-133590000D03*
D29*
X251420000Y-136130000D03*
X251420000Y-138670000D03*
X251420000Y-141210000D03*
X251420000Y-143750000D03*
X251420000Y-146290000D03*
X251420000Y-148830000D03*
X251420000Y-151370000D03*
X251420000Y-153910000D03*
X251420000Y-156450000D03*
X251420000Y-158990000D03*
X251420000Y-161530000D03*
X251420000Y-164070000D03*
X251420000Y-166610000D03*
X251420000Y-169150000D03*
X251420000Y-171690000D03*
X251420000Y-174230000D03*
X251420000Y-176770000D03*
X251420000Y-179310000D03*
X248880000Y-131050000D03*
D28*
X248880000Y-133590000D03*
D29*
X248880000Y-136130000D03*
X248880000Y-138670000D03*
X248880000Y-141210000D03*
X248880000Y-143750000D03*
X248880000Y-146290000D03*
X248880000Y-148830000D03*
X248880000Y-151370000D03*
X248880000Y-153910000D03*
X248880000Y-156450000D03*
X248880000Y-158990000D03*
X248880000Y-161530000D03*
X248880000Y-164070000D03*
X248880000Y-166610000D03*
X248880000Y-169150000D03*
X248880000Y-171690000D03*
X248880000Y-174230000D03*
X248880000Y-176770000D03*
X248880000Y-179310000D03*
D22*
X186300000Y-107490000D03*
X186300000Y-104950000D03*
D14*
X104750000Y-195530000D03*
D24*
X104750000Y-198070000D03*
X104750000Y-200610000D03*
X104750000Y-203150000D03*
X104750000Y-205690000D03*
X104750000Y-208230000D03*
X104750000Y-210770000D03*
X104750000Y-213310000D03*
X104750000Y-215850000D03*
D14*
X108750000Y-182850000D03*
D24*
X108750000Y-185390000D03*
X108750000Y-187930000D03*
X108750000Y-190470000D03*
X108750000Y-193010000D03*
X108750000Y-195550000D03*
D30*
X304115000Y-241075000D03*
X301575000Y-241075000D03*
X299035000Y-241075000D03*
D16*
X356610000Y-230320000D03*
D17*
X366510000Y-230320000D03*
D14*
X374762975Y-107062973D03*
D15*
X376032975Y-104522973D03*
X377302975Y-107062973D03*
X378572975Y-104522973D03*
X379842975Y-107062973D03*
X379842975Y-99442973D03*
X378572975Y-101982973D03*
X377302975Y-99442973D03*
X376032975Y-101982973D03*
X374762975Y-99442973D03*
D31*
X346620000Y-113200000D03*
X349160000Y-113200000D03*
X351700000Y-113200000D03*
D32*
X372380000Y-211320000D03*
X374920000Y-211320000D03*
D14*
X278940000Y-91000000D03*
D24*
X281480000Y-91000000D03*
X284020000Y-91000000D03*
X286560000Y-91000000D03*
X289100000Y-91000000D03*
X291640000Y-91000000D03*
X294180000Y-91000000D03*
X296720000Y-91000000D03*
X299260000Y-91000000D03*
X301800000Y-91000000D03*
X301800000Y-83380000D03*
X299260000Y-83380000D03*
X296720000Y-83380000D03*
X294180000Y-83380000D03*
X291640000Y-83380000D03*
X289100000Y-83380000D03*
X286560000Y-83380000D03*
X284020000Y-83380000D03*
X281480000Y-83380000D03*
X278940000Y-83380000D03*
D21*
X333540000Y-214150000D03*
X328460000Y-214150000D03*
D22*
X146800000Y-98825000D03*
X146800000Y-101365000D03*
D14*
X277900000Y-71500000D03*
D24*
X280440000Y-71500000D03*
X282980000Y-71500000D03*
X285520000Y-71500000D03*
X288060000Y-71500000D03*
X288060000Y-63880000D03*
X285520000Y-63880000D03*
X282980000Y-63880000D03*
X280440000Y-63880000D03*
X277900000Y-63880000D03*
D14*
X311410000Y-80500000D03*
D24*
X313950000Y-80500000D03*
X316490000Y-80500000D03*
X319030000Y-80500000D03*
X321570000Y-80500000D03*
X324110000Y-80500000D03*
X326650000Y-80500000D03*
X326650000Y-72880000D03*
X324110000Y-72880000D03*
X321570000Y-72880000D03*
X319030000Y-72880000D03*
X316490000Y-72880000D03*
X313950000Y-72880000D03*
X311410000Y-72880000D03*
D22*
X205850000Y-156100000D03*
X205850000Y-158640000D03*
D21*
X292325000Y-199370000D03*
X292325000Y-204450000D03*
D14*
X242510000Y-233600000D03*
D15*
X253940000Y-233600000D03*
D23*
X263175000Y-115770000D03*
X263175000Y-118720000D03*
D18*
X102320390Y-69707999D03*
X103264971Y-67427580D03*
X103264971Y-71988418D03*
X105545390Y-66482999D03*
D19*
X105545390Y-69707999D03*
D18*
X105545390Y-72932999D03*
X107825809Y-67427580D03*
X107825809Y-71988418D03*
X108770390Y-69707999D03*
D28*
X315650000Y-212300000D03*
D33*
X315650000Y-214916200D03*
X315650000Y-217532400D03*
X315650000Y-220148600D03*
X315650000Y-222764800D03*
X315650000Y-225381000D03*
X315650000Y-227997200D03*
X315650000Y-230613400D03*
X315650000Y-233229600D03*
D22*
X146780000Y-156090000D03*
X146780000Y-158630000D03*
D18*
X384450000Y-92568000D03*
X385394581Y-90287581D03*
X385394581Y-94848419D03*
X387675000Y-89343000D03*
D19*
X387675000Y-92568000D03*
D18*
X387675000Y-95793000D03*
X389955419Y-90287581D03*
X389955419Y-94848419D03*
X390900000Y-92568000D03*
D21*
X208250000Y-228510000D03*
X208250000Y-233590000D03*
D22*
X146760000Y-209380000D03*
X146760000Y-211920000D03*
D34*
X263160000Y-128920000D03*
X263160000Y-125970000D03*
D22*
X186300000Y-92550000D03*
X186300000Y-95090000D03*
D21*
X341900000Y-152740000D03*
X341900000Y-147660000D03*
D22*
X186300000Y-88890000D03*
X186300000Y-86350000D03*
D14*
X227485000Y-228500000D03*
D15*
X238915000Y-228500000D03*
D35*
X173930000Y-84960000D03*
X173930000Y-87500000D03*
X173930000Y-90040000D03*
X173930000Y-92580000D03*
X173930000Y-95120000D03*
X173930000Y-97660000D03*
X173930000Y-100200000D03*
X173930000Y-102740000D03*
X173930000Y-105280000D03*
X173930000Y-107820000D03*
X173930000Y-110360000D03*
X173930000Y-112900000D03*
X173930000Y-115440000D03*
X173930000Y-117980000D03*
X173930000Y-120520000D03*
X173930000Y-123060000D03*
X173930000Y-125600000D03*
X173930000Y-128140000D03*
X173930000Y-130680000D03*
X173930000Y-133220000D03*
X173930000Y-135760000D03*
X173930000Y-138300000D03*
X173930000Y-140840000D03*
X173930000Y-143380000D03*
X173930000Y-145920000D03*
X173930000Y-148460000D03*
X173930000Y-151000000D03*
X173930000Y-153540000D03*
X173930000Y-156080000D03*
X173930000Y-158620000D03*
X173930000Y-161160000D03*
X179010000Y-84960000D03*
X179010000Y-87500000D03*
X179010000Y-90040000D03*
X179010000Y-92580000D03*
X179010000Y-95120000D03*
X179010000Y-97660000D03*
X179010000Y-100200000D03*
X179010000Y-102740000D03*
X179010000Y-105280000D03*
X179010000Y-107820000D03*
X179010000Y-110360000D03*
X179010000Y-112900000D03*
X179010000Y-115440000D03*
X179010000Y-117980000D03*
X179010000Y-120520000D03*
X179010000Y-123060000D03*
X179010000Y-125600000D03*
X179010000Y-128140000D03*
X179010000Y-130680000D03*
X179010000Y-133220000D03*
X179010000Y-135760000D03*
X179010000Y-138300000D03*
X179010000Y-140840000D03*
X179010000Y-143380000D03*
X179010000Y-145920000D03*
X179010000Y-148460000D03*
X179010000Y-151000000D03*
X179010000Y-153540000D03*
X179010000Y-156080000D03*
X179010000Y-158620000D03*
X179010000Y-161160000D03*
X173930000Y-171320000D03*
X173930000Y-173860000D03*
X173930000Y-176400000D03*
X173930000Y-178940000D03*
X173930000Y-181480000D03*
X173930000Y-184020000D03*
X173930000Y-186560000D03*
X173930000Y-189100000D03*
X173930000Y-191640000D03*
X173930000Y-194180000D03*
X173930000Y-196720000D03*
X173930000Y-199260000D03*
X173930000Y-201800000D03*
X173930000Y-204340000D03*
X173930000Y-206880000D03*
X173930000Y-209420000D03*
X173930000Y-211960000D03*
X173930000Y-214500000D03*
X179010000Y-171320000D03*
X179010000Y-173860000D03*
X179010000Y-176400000D03*
X179010000Y-178940000D03*
X179010000Y-181480000D03*
X179010000Y-184020000D03*
X179010000Y-186560000D03*
X179010000Y-189100000D03*
X179010000Y-191640000D03*
X179010000Y-194180000D03*
X179010000Y-196720000D03*
X179010000Y-199260000D03*
X179010000Y-201800000D03*
X179010000Y-204340000D03*
X179010000Y-206880000D03*
X179010000Y-209420000D03*
X179010000Y-211960000D03*
X179010000Y-214500000D03*
D21*
X277440000Y-241150000D03*
X272360000Y-241150000D03*
X356400000Y-152740000D03*
X356400000Y-147660000D03*
D14*
X344215000Y-209600000D03*
D15*
X332785000Y-209600000D03*
D14*
X368500000Y-72100000D03*
D24*
X368500000Y-74640000D03*
X368500000Y-77180000D03*
X368500000Y-79720000D03*
X368500000Y-82260000D03*
X368500000Y-84800000D03*
X368500000Y-87340000D03*
X368500000Y-89880000D03*
D21*
X348440000Y-214150000D03*
X343360000Y-214150000D03*
D14*
X355820000Y-217840000D03*
D15*
X367250000Y-217840000D03*
D18*
X245575000Y-99375000D03*
X246519581Y-97094581D03*
X246519581Y-101655419D03*
X248800000Y-96150000D03*
D19*
X248800000Y-99375000D03*
D18*
X248800000Y-102600000D03*
X251080419Y-97094581D03*
X251080419Y-101655419D03*
X252025000Y-99375000D03*
X384450000Y-224648000D03*
X385394581Y-222367581D03*
X385394581Y-226928419D03*
X387675000Y-221423000D03*
D19*
X387675000Y-224648000D03*
D18*
X387675000Y-227873000D03*
X389955419Y-222367581D03*
X389955419Y-226928419D03*
X390900000Y-224648000D03*
D12*
X250775000Y-240150000D03*
D13*
X253315000Y-240150000D03*
D21*
X272200000Y-84760000D03*
X272200000Y-89840000D03*
D22*
X166500000Y-209400000D03*
X166500000Y-211940000D03*
D32*
X296795000Y-205535000D03*
X299335000Y-205535000D03*
X301875000Y-205535000D03*
X304415000Y-205535000D03*
X306955000Y-205535000D03*
X309495000Y-205535000D03*
X312035000Y-205535000D03*
X314575000Y-205535000D03*
X317115000Y-205535000D03*
X319655000Y-205535000D03*
X319655000Y-197915000D03*
X317115000Y-197915000D03*
X314575000Y-197915000D03*
X312035000Y-197915000D03*
X309495000Y-197915000D03*
X306955000Y-197915000D03*
X304415000Y-197915000D03*
X301875000Y-197915000D03*
X299335000Y-197915000D03*
X296795000Y-197915000D03*
D12*
X243200000Y-240120000D03*
D13*
X245740000Y-240120000D03*
D22*
X225540000Y-209470000D03*
X225540000Y-212010000D03*
X127010000Y-209390000D03*
X127010000Y-211930000D03*
X127100000Y-92600000D03*
X127100000Y-95140000D03*
D15*
X347270000Y-66200000D03*
D24*
X357430000Y-66200000D03*
D18*
X181250000Y-224648000D03*
X182194581Y-222367581D03*
X182194581Y-226928419D03*
X184475000Y-221423000D03*
D19*
X184475000Y-224648000D03*
D18*
X184475000Y-227873000D03*
X186755419Y-222367581D03*
X186755419Y-226928419D03*
X187700000Y-224648000D03*
D22*
X166475000Y-156050000D03*
X166475000Y-158590000D03*
D36*
X373500000Y-173120000D03*
X373500000Y-168920000D03*
X373500000Y-164720000D03*
X373500000Y-160520000D03*
X373500000Y-156320000D03*
X373500000Y-152120000D03*
X373500000Y-147920000D03*
X373500000Y-143720000D03*
X373500000Y-139520000D03*
X373500000Y-135320000D03*
X373500000Y-131120000D03*
X373500000Y-126920000D03*
X379000000Y-173120000D03*
X379000000Y-168920000D03*
X379000000Y-164720000D03*
X379000000Y-160520000D03*
X379000000Y-156320000D03*
X379000000Y-152120000D03*
X379000000Y-147920000D03*
X379000000Y-143720000D03*
X379000000Y-139520000D03*
X379000000Y-135320000D03*
X379000000Y-131120000D03*
X379000000Y-126920000D03*
D22*
X205810000Y-209470000D03*
X205810000Y-212010000D03*
D16*
X356609418Y-227877617D03*
D17*
X366509418Y-227877617D03*
D30*
X313680000Y-241100000D03*
X311140000Y-241100000D03*
X308600000Y-241100000D03*
D14*
X108750000Y-139640000D03*
D24*
X108750000Y-142180000D03*
X108750000Y-144720000D03*
X108750000Y-147260000D03*
X108750000Y-149800000D03*
X108750000Y-152340000D03*
X108750000Y-154880000D03*
X108750000Y-157420000D03*
X108750000Y-159960000D03*
X108750000Y-162500000D03*
D31*
X337230000Y-241000000D03*
X339770000Y-241000000D03*
D14*
X379300000Y-72100000D03*
D24*
X379300000Y-74640000D03*
X379300000Y-77180000D03*
X379300000Y-79720000D03*
X379300000Y-82260000D03*
X379300000Y-84800000D03*
X379300000Y-87340000D03*
X379300000Y-89880000D03*
D14*
X292845000Y-76700000D03*
D24*
X295385000Y-76700000D03*
X297925000Y-76700000D03*
X300465000Y-76700000D03*
X303005000Y-76700000D03*
X305545000Y-76700000D03*
D12*
X228200000Y-240120000D03*
D13*
X230740000Y-240120000D03*
D14*
X355820000Y-224450000D03*
D15*
X367250000Y-224450000D03*
D35*
X95000000Y-84940000D03*
X95000000Y-87480000D03*
X95000000Y-90020000D03*
X95000000Y-92560000D03*
X95000000Y-95100000D03*
X95000000Y-97640000D03*
X95000000Y-100180000D03*
X95000000Y-102720000D03*
X95000000Y-105260000D03*
X95000000Y-107800000D03*
X95000000Y-110340000D03*
X95000000Y-112880000D03*
X95000000Y-115420000D03*
X95000000Y-117960000D03*
X95000000Y-120500000D03*
X95000000Y-123040000D03*
X95000000Y-125580000D03*
X95000000Y-128120000D03*
X95000000Y-130660000D03*
X95000000Y-133200000D03*
X95000000Y-135740000D03*
X95000000Y-138280000D03*
X95000000Y-140820000D03*
X95000000Y-143360000D03*
X95000000Y-145900000D03*
X95000000Y-148440000D03*
X95000000Y-150980000D03*
X95000000Y-153520000D03*
X95000000Y-156060000D03*
X95000000Y-158600000D03*
X95000000Y-161140000D03*
X100080000Y-84940000D03*
X100080000Y-87480000D03*
X100080000Y-90020000D03*
X100080000Y-92560000D03*
X100080000Y-95100000D03*
X100080000Y-97640000D03*
X100080000Y-100180000D03*
X100080000Y-102720000D03*
X100080000Y-105260000D03*
X100080000Y-107800000D03*
X100080000Y-110340000D03*
X100080000Y-112880000D03*
X100080000Y-115420000D03*
X100080000Y-117960000D03*
X100080000Y-120500000D03*
X100080000Y-123040000D03*
X100080000Y-125580000D03*
X100080000Y-128120000D03*
X100080000Y-130660000D03*
X100080000Y-133200000D03*
X100080000Y-135740000D03*
X100080000Y-138280000D03*
X100080000Y-140820000D03*
X100080000Y-143360000D03*
X100080000Y-145900000D03*
X100080000Y-148440000D03*
X100080000Y-150980000D03*
X100080000Y-153520000D03*
X100080000Y-156060000D03*
X100080000Y-158600000D03*
X100080000Y-161140000D03*
X95000000Y-171300000D03*
X95000000Y-173840000D03*
X95000000Y-176380000D03*
X95000000Y-178920000D03*
X95000000Y-181460000D03*
X95000000Y-184000000D03*
X95000000Y-186540000D03*
X95000000Y-189080000D03*
X95000000Y-191620000D03*
X95000000Y-194160000D03*
X95000000Y-196700000D03*
X95000000Y-199240000D03*
X95000000Y-201780000D03*
X95000000Y-204320000D03*
X95000000Y-206860000D03*
X95000000Y-209400000D03*
X95000000Y-211940000D03*
X95000000Y-214480000D03*
X100080000Y-171300000D03*
X100080000Y-173840000D03*
X100080000Y-176380000D03*
X100080000Y-178920000D03*
X100080000Y-181460000D03*
X100080000Y-184000000D03*
X100080000Y-186540000D03*
X100080000Y-189080000D03*
X100080000Y-191620000D03*
X100080000Y-194160000D03*
X100080000Y-196700000D03*
X100080000Y-199240000D03*
X100080000Y-201780000D03*
X100080000Y-204320000D03*
X100080000Y-206860000D03*
X100080000Y-209400000D03*
X100080000Y-211940000D03*
X100080000Y-214480000D03*
D14*
X104720000Y-83710000D03*
D24*
X104720000Y-86250000D03*
X104720000Y-88790000D03*
X104720000Y-91330000D03*
X104720000Y-93870000D03*
X104720000Y-96410000D03*
X104720000Y-98950000D03*
X104720000Y-101490000D03*
X104720000Y-104030000D03*
X104720000Y-106570000D03*
D22*
X205890000Y-107490000D03*
X205890000Y-104950000D03*
X146800000Y-92625000D03*
X146800000Y-95165000D03*
D31*
X351690000Y-162450000D03*
X349150000Y-162450000D03*
X346610000Y-162450000D03*
D21*
X342250000Y-68790000D03*
X342250000Y-63710000D03*
D14*
X363000000Y-72100000D03*
D24*
X363000000Y-74640000D03*
X363000000Y-77180000D03*
X363000000Y-79720000D03*
X363000000Y-82260000D03*
X363000000Y-84800000D03*
X363000000Y-87340000D03*
X363000000Y-89880000D03*
D20*
X361100000Y-167300000D03*
X366100000Y-167300000D03*
D37*
X342100000Y-219625000D03*
X342100000Y-222165000D03*
X342100000Y-224705000D03*
X342100000Y-227245000D03*
X342100000Y-229785000D03*
X342100000Y-232325000D03*
X342100000Y-234865000D03*
X349720000Y-234865000D03*
X349720000Y-232325000D03*
X349720000Y-229785000D03*
X349720000Y-227245000D03*
X349720000Y-224705000D03*
D22*
X349720000Y-222165000D03*
X349720000Y-219625000D03*
D14*
X333600000Y-101720000D03*
D24*
X336140000Y-101720000D03*
X338680000Y-101720000D03*
X341220000Y-101720000D03*
X343760000Y-101720000D03*
X346300000Y-101720000D03*
X348840000Y-101720000D03*
X351380000Y-101720000D03*
X353920000Y-101720000D03*
X356460000Y-101720000D03*
X356460000Y-94100000D03*
X353920000Y-94100000D03*
X351380000Y-94100000D03*
X348840000Y-94100000D03*
X346300000Y-94100000D03*
X343760000Y-94100000D03*
X341220000Y-94100000D03*
X338680000Y-94100000D03*
X336140000Y-94100000D03*
X333600000Y-94100000D03*
D22*
X225550000Y-156110000D03*
X225550000Y-158650000D03*
D14*
X278940000Y-101800000D03*
D24*
X281480000Y-101800000D03*
X284020000Y-101800000D03*
X286560000Y-101800000D03*
X289100000Y-101800000D03*
X291640000Y-101800000D03*
X294180000Y-101800000D03*
X296720000Y-101800000D03*
X299260000Y-101800000D03*
X301800000Y-101800000D03*
X301800000Y-94180000D03*
X299260000Y-94180000D03*
X296720000Y-94180000D03*
X294180000Y-94180000D03*
X291640000Y-94180000D03*
X289100000Y-94180000D03*
X286560000Y-94180000D03*
X284020000Y-94180000D03*
X281480000Y-94180000D03*
X278940000Y-94180000D03*
D21*
X337900000Y-68790000D03*
X337900000Y-63710000D03*
D12*
X235700000Y-240120000D03*
D13*
X238240000Y-240120000D03*
D35*
X193680000Y-84960000D03*
X193680000Y-87500000D03*
X193680000Y-90040000D03*
X193680000Y-92580000D03*
X193680000Y-95120000D03*
X193680000Y-97660000D03*
X193680000Y-100200000D03*
X193680000Y-102740000D03*
X193680000Y-105280000D03*
X193680000Y-107820000D03*
X193680000Y-110360000D03*
X193680000Y-112900000D03*
X193680000Y-115440000D03*
X193680000Y-117980000D03*
X193680000Y-120520000D03*
X193680000Y-123060000D03*
X193680000Y-125600000D03*
X193680000Y-128140000D03*
X193680000Y-130680000D03*
X193680000Y-133220000D03*
X193680000Y-135760000D03*
X193680000Y-138300000D03*
X193680000Y-140840000D03*
X193680000Y-143380000D03*
X193680000Y-145920000D03*
X193680000Y-148460000D03*
X193680000Y-151000000D03*
X193680000Y-153540000D03*
X193680000Y-156080000D03*
X193680000Y-158620000D03*
X193680000Y-161160000D03*
X198760000Y-84960000D03*
X198760000Y-87500000D03*
X198760000Y-90040000D03*
X198760000Y-92580000D03*
X198760000Y-95120000D03*
X198760000Y-97660000D03*
X198760000Y-100200000D03*
X198760000Y-102740000D03*
X198760000Y-105280000D03*
X198760000Y-107820000D03*
X198760000Y-110360000D03*
X198760000Y-112900000D03*
X198760000Y-115440000D03*
X198760000Y-117980000D03*
X198760000Y-120520000D03*
X198760000Y-123060000D03*
X198760000Y-125600000D03*
X198760000Y-128140000D03*
X198760000Y-130680000D03*
X198760000Y-133220000D03*
X198760000Y-135760000D03*
X198760000Y-138300000D03*
X198760000Y-140840000D03*
X198760000Y-143380000D03*
X198760000Y-145920000D03*
X198760000Y-148460000D03*
X198760000Y-151000000D03*
X198760000Y-153540000D03*
X198760000Y-156080000D03*
X198760000Y-158620000D03*
X198760000Y-161160000D03*
X193680000Y-171320000D03*
X193680000Y-173860000D03*
X193680000Y-176400000D03*
X193680000Y-178940000D03*
X193680000Y-181480000D03*
X193680000Y-184020000D03*
X193680000Y-186560000D03*
X193680000Y-189100000D03*
X193680000Y-191640000D03*
X193680000Y-194180000D03*
X193680000Y-196720000D03*
X193680000Y-199260000D03*
X193680000Y-201800000D03*
X193680000Y-204340000D03*
X193680000Y-206880000D03*
X193680000Y-209420000D03*
X193680000Y-211960000D03*
X193680000Y-214500000D03*
X198760000Y-171320000D03*
X198760000Y-173860000D03*
X198760000Y-176400000D03*
X198760000Y-178940000D03*
X198760000Y-181480000D03*
X198760000Y-184020000D03*
X198760000Y-186560000D03*
X198760000Y-189100000D03*
X198760000Y-191640000D03*
X198760000Y-194180000D03*
X198760000Y-196720000D03*
X198760000Y-199260000D03*
X198760000Y-201800000D03*
X198760000Y-204340000D03*
X198760000Y-206880000D03*
X198760000Y-209420000D03*
X198760000Y-211960000D03*
X198760000Y-214500000D03*
D32*
X374890000Y-221140000D03*
X372350000Y-221140000D03*
D20*
X366075000Y-144350000D03*
X361075000Y-144350000D03*
D14*
X104750000Y-171420000D03*
D24*
X104750000Y-173960000D03*
X104750000Y-176500000D03*
X104750000Y-179040000D03*
X104750000Y-181580000D03*
X104750000Y-184120000D03*
X104750000Y-186660000D03*
X104750000Y-189200000D03*
D37*
X327280000Y-219660000D03*
X327280000Y-222200000D03*
X327280000Y-224740000D03*
X327280000Y-227280000D03*
X327280000Y-229820000D03*
X327280000Y-232360000D03*
X327280000Y-234900000D03*
X334900000Y-234900000D03*
X334900000Y-232360000D03*
X334900000Y-229820000D03*
X334900000Y-227280000D03*
X334900000Y-224740000D03*
D22*
X334900000Y-222200000D03*
X334900000Y-219660000D03*
D34*
X263175000Y-123835000D03*
X263175000Y-120885000D03*
D38*
X349150000Y-135032500D03*
D39*
X346610000Y-152812500D03*
X349150000Y-152812500D03*
X351690000Y-152812500D03*
D14*
X311380000Y-91200000D03*
D24*
X313920000Y-91200000D03*
X316460000Y-91200000D03*
X319000000Y-91200000D03*
X321540000Y-91200000D03*
X324080000Y-91200000D03*
X326620000Y-91200000D03*
X326620000Y-83580000D03*
X324080000Y-83580000D03*
X321540000Y-83580000D03*
X319000000Y-83580000D03*
X316460000Y-83580000D03*
X313920000Y-83580000D03*
X311380000Y-83580000D03*
D35*
X154190000Y-84960000D03*
X154190000Y-87500000D03*
X154190000Y-90040000D03*
X154190000Y-92580000D03*
X154190000Y-95120000D03*
X154190000Y-97660000D03*
X154190000Y-100200000D03*
X154190000Y-102740000D03*
X154190000Y-105280000D03*
X154190000Y-107820000D03*
X154190000Y-110360000D03*
X154190000Y-112900000D03*
X154190000Y-115440000D03*
X154190000Y-117980000D03*
X154190000Y-120520000D03*
X154190000Y-123060000D03*
X154190000Y-125600000D03*
X154190000Y-128140000D03*
X154190000Y-130680000D03*
X154190000Y-133220000D03*
X154190000Y-135760000D03*
X154190000Y-138300000D03*
X154190000Y-140840000D03*
X154190000Y-143380000D03*
X154190000Y-145920000D03*
X154190000Y-148460000D03*
X154190000Y-151000000D03*
X154190000Y-153540000D03*
X154190000Y-156080000D03*
X154190000Y-158620000D03*
X154190000Y-161160000D03*
X159270000Y-84960000D03*
X159270000Y-87500000D03*
X159270000Y-90040000D03*
X159270000Y-92580000D03*
X159270000Y-95120000D03*
X159270000Y-97660000D03*
X159270000Y-100200000D03*
X159270000Y-102740000D03*
X159270000Y-105280000D03*
X159270000Y-107820000D03*
X159270000Y-110360000D03*
X159270000Y-112900000D03*
X159270000Y-115440000D03*
X159270000Y-117980000D03*
X159270000Y-120520000D03*
X159270000Y-123060000D03*
X159270000Y-125600000D03*
X159270000Y-128140000D03*
X159270000Y-130680000D03*
X159270000Y-133220000D03*
X159270000Y-135760000D03*
X159270000Y-138300000D03*
X159270000Y-140840000D03*
X159270000Y-143380000D03*
X159270000Y-145920000D03*
X159270000Y-148460000D03*
X159270000Y-151000000D03*
X159270000Y-153540000D03*
X159270000Y-156080000D03*
X159270000Y-158620000D03*
X159270000Y-161160000D03*
X154190000Y-171320000D03*
X154190000Y-173860000D03*
X154190000Y-176400000D03*
X154190000Y-178940000D03*
X154190000Y-181480000D03*
X154190000Y-184020000D03*
X154190000Y-186560000D03*
X154190000Y-189100000D03*
X154190000Y-191640000D03*
X154190000Y-194180000D03*
X154190000Y-196720000D03*
X154190000Y-199260000D03*
X154190000Y-201800000D03*
X154190000Y-204340000D03*
X154190000Y-206880000D03*
X154190000Y-209420000D03*
X154190000Y-211960000D03*
X154190000Y-214500000D03*
X159270000Y-171320000D03*
X159270000Y-173860000D03*
X159270000Y-176400000D03*
X159270000Y-178940000D03*
X159270000Y-181480000D03*
X159270000Y-184020000D03*
X159270000Y-186560000D03*
X159270000Y-189100000D03*
X159270000Y-191640000D03*
X159270000Y-194180000D03*
X159270000Y-196720000D03*
X159270000Y-199260000D03*
X159270000Y-201800000D03*
X159270000Y-204340000D03*
X159270000Y-206880000D03*
X159270000Y-209420000D03*
X159270000Y-211960000D03*
X159270000Y-214500000D03*
D22*
X146800000Y-88970000D03*
X146800000Y-86430000D03*
D21*
X314600000Y-68780000D03*
X314600000Y-63700000D03*
D22*
X225540000Y-107630000D03*
X225540000Y-105090000D03*
D14*
X311380000Y-101820000D03*
D24*
X313920000Y-101820000D03*
X316460000Y-101820000D03*
X319000000Y-101820000D03*
X321540000Y-101820000D03*
X324080000Y-101820000D03*
X326620000Y-101820000D03*
X326620000Y-94200000D03*
X324080000Y-94200000D03*
X321540000Y-94200000D03*
X319000000Y-94200000D03*
X316460000Y-94200000D03*
X313920000Y-94200000D03*
X311380000Y-94200000D03*
D14*
X294000000Y-71400000D03*
D24*
X296540000Y-71400000D03*
X299080000Y-71400000D03*
X301620000Y-71400000D03*
X304160000Y-71400000D03*
X304160000Y-63780000D03*
X301620000Y-63780000D03*
X299080000Y-63780000D03*
X296540000Y-63780000D03*
X294000000Y-63780000D03*
D18*
X102510000Y-224648000D03*
X103454581Y-222367581D03*
X103454581Y-226928419D03*
X105735000Y-221423000D03*
D19*
X105735000Y-224648000D03*
D18*
X105735000Y-227873000D03*
X108015419Y-222367581D03*
X108015419Y-226928419D03*
X108960000Y-224648000D03*
D14*
X104868779Y-116727480D03*
D24*
X104868779Y-119267480D03*
X104868779Y-121807480D03*
X104868779Y-124347480D03*
X104868779Y-126887480D03*
X104868779Y-129427480D03*
X104868779Y-131967480D03*
X104868779Y-134507480D03*
X104868779Y-137047480D03*
X104868779Y-139587480D03*
D22*
X166500000Y-107465000D03*
X166500000Y-104925000D03*
X127100000Y-107540000D03*
X127100000Y-105000000D03*
D31*
X344850000Y-241000000D03*
X347390000Y-241000000D03*
D22*
X127100000Y-88940000D03*
X127100000Y-86400000D03*
X186300000Y-156075000D03*
X186300000Y-158615000D03*
D18*
X245625000Y-199475000D03*
X246569581Y-197194581D03*
X246569581Y-201755419D03*
X248850000Y-196250000D03*
D19*
X248850000Y-199475000D03*
D18*
X248850000Y-202700000D03*
X251130419Y-197194581D03*
X251130419Y-201755419D03*
X252075000Y-199475000D03*
D14*
X367230000Y-107065000D03*
D15*
X368500000Y-104525000D03*
X369770000Y-107065000D03*
X371040000Y-104525000D03*
X372310000Y-107065000D03*
X372310000Y-99445000D03*
X371040000Y-101985000D03*
X369770000Y-99445000D03*
X368500000Y-101985000D03*
X367230000Y-99445000D03*
D35*
X134450000Y-84950000D03*
X134450000Y-87490000D03*
X134450000Y-90030000D03*
X134450000Y-92570000D03*
X134450000Y-95110000D03*
X134450000Y-97650000D03*
X134450000Y-100190000D03*
X134450000Y-102730000D03*
X134450000Y-105270000D03*
X134450000Y-107810000D03*
X134450000Y-110350000D03*
X134450000Y-112890000D03*
X134450000Y-115430000D03*
X134450000Y-117970000D03*
X134450000Y-120510000D03*
X134450000Y-123050000D03*
X134450000Y-125590000D03*
X134450000Y-128130000D03*
X134450000Y-130670000D03*
X134450000Y-133210000D03*
X134450000Y-135750000D03*
X134450000Y-138290000D03*
X134450000Y-140830000D03*
X134450000Y-143370000D03*
X134450000Y-145910000D03*
X134450000Y-148450000D03*
X134450000Y-150990000D03*
X134450000Y-153530000D03*
X134450000Y-156070000D03*
X134450000Y-158610000D03*
X134450000Y-161150000D03*
X139530000Y-84950000D03*
X139530000Y-87490000D03*
X139530000Y-90030000D03*
X139530000Y-92570000D03*
X139530000Y-95110000D03*
X139530000Y-97650000D03*
X139530000Y-100190000D03*
X139530000Y-102730000D03*
X139530000Y-105270000D03*
X139530000Y-107810000D03*
X139530000Y-110350000D03*
X139530000Y-112890000D03*
X139530000Y-115430000D03*
X139530000Y-117970000D03*
X139530000Y-120510000D03*
X139530000Y-123050000D03*
X139530000Y-125590000D03*
X139530000Y-128130000D03*
X139530000Y-130670000D03*
X139530000Y-133210000D03*
X139530000Y-135750000D03*
X139530000Y-138290000D03*
X139530000Y-140830000D03*
X139530000Y-143370000D03*
X139530000Y-145910000D03*
X139530000Y-148450000D03*
X139530000Y-150990000D03*
X139530000Y-153530000D03*
X139530000Y-156070000D03*
X139530000Y-158610000D03*
X139530000Y-161150000D03*
X134450000Y-171310000D03*
X134450000Y-173850000D03*
X134450000Y-176390000D03*
X134450000Y-178930000D03*
X134450000Y-181470000D03*
X134450000Y-184010000D03*
X134450000Y-186550000D03*
X134450000Y-189090000D03*
X134450000Y-191630000D03*
X134450000Y-194170000D03*
X134450000Y-196710000D03*
X134450000Y-199250000D03*
X134450000Y-201790000D03*
X134450000Y-204330000D03*
X134450000Y-206870000D03*
X134450000Y-209410000D03*
X134450000Y-211950000D03*
X134450000Y-214490000D03*
X139530000Y-171310000D03*
X139530000Y-173850000D03*
X139530000Y-176390000D03*
X139530000Y-178930000D03*
X139530000Y-181470000D03*
X139530000Y-184010000D03*
X139530000Y-186550000D03*
X139530000Y-189090000D03*
X139530000Y-191630000D03*
X139530000Y-194170000D03*
X139530000Y-196710000D03*
X139530000Y-199250000D03*
X139530000Y-201790000D03*
X139530000Y-204330000D03*
X139530000Y-206870000D03*
X139530000Y-209410000D03*
X139530000Y-211950000D03*
X139530000Y-214490000D03*
D14*
X356460000Y-72805000D03*
D24*
X353920000Y-72805000D03*
X351380000Y-72805000D03*
X348840000Y-72805000D03*
X346300000Y-72805000D03*
X343760000Y-72805000D03*
X341220000Y-72805000D03*
X338680000Y-72805000D03*
X336140000Y-72805000D03*
X333600000Y-72805000D03*
X333600000Y-80425000D03*
X336140000Y-80425000D03*
X338680000Y-80425000D03*
X341220000Y-80425000D03*
X343760000Y-80425000D03*
X346300000Y-80425000D03*
X348840000Y-80425000D03*
X351380000Y-80425000D03*
X353920000Y-80425000D03*
X356460000Y-80425000D03*
D35*
X213420000Y-84960000D03*
X213420000Y-87500000D03*
X213420000Y-90040000D03*
X213420000Y-92580000D03*
X213420000Y-95120000D03*
X213420000Y-97660000D03*
X213420000Y-100200000D03*
X213420000Y-102740000D03*
X213420000Y-105280000D03*
X213420000Y-107820000D03*
X213420000Y-110360000D03*
X213420000Y-112900000D03*
X213420000Y-115440000D03*
X213420000Y-117980000D03*
X213420000Y-120520000D03*
X213420000Y-123060000D03*
X213420000Y-125600000D03*
X213420000Y-128140000D03*
X213420000Y-130680000D03*
X213420000Y-133220000D03*
X213420000Y-135760000D03*
X213420000Y-138300000D03*
X213420000Y-140840000D03*
X213420000Y-143380000D03*
X213420000Y-145920000D03*
X213420000Y-148460000D03*
X213420000Y-151000000D03*
X213420000Y-153540000D03*
X213420000Y-156080000D03*
X213420000Y-158620000D03*
X213420000Y-161160000D03*
X218500000Y-84960000D03*
X218500000Y-87500000D03*
X218500000Y-90040000D03*
X218500000Y-92580000D03*
X218500000Y-95120000D03*
X218500000Y-97660000D03*
X218500000Y-100200000D03*
X218500000Y-102740000D03*
X218500000Y-105280000D03*
X218500000Y-107820000D03*
X218500000Y-110360000D03*
X218500000Y-112900000D03*
X218500000Y-115440000D03*
X218500000Y-117980000D03*
X218500000Y-120520000D03*
X218500000Y-123060000D03*
X218500000Y-125600000D03*
X218500000Y-128140000D03*
X218500000Y-130680000D03*
X218500000Y-133220000D03*
X218500000Y-135760000D03*
X218500000Y-138300000D03*
X218500000Y-140840000D03*
X218500000Y-143380000D03*
X218500000Y-145920000D03*
X218500000Y-148460000D03*
X218500000Y-151000000D03*
X218500000Y-153540000D03*
X218500000Y-156080000D03*
X218500000Y-158620000D03*
X218500000Y-161160000D03*
X213420000Y-171320000D03*
X213420000Y-173860000D03*
X213420000Y-176400000D03*
X213420000Y-178940000D03*
X213420000Y-181480000D03*
X213420000Y-184020000D03*
X213420000Y-186560000D03*
X213420000Y-189100000D03*
X213420000Y-191640000D03*
X213420000Y-194180000D03*
X213420000Y-196720000D03*
X213420000Y-199260000D03*
X213420000Y-201800000D03*
X213420000Y-204340000D03*
X213420000Y-206880000D03*
X213420000Y-209420000D03*
X213420000Y-211960000D03*
X213420000Y-214500000D03*
X218500000Y-171320000D03*
X218500000Y-173860000D03*
X218500000Y-176400000D03*
X218500000Y-178940000D03*
X218500000Y-181480000D03*
X218500000Y-184020000D03*
X218500000Y-186560000D03*
X218500000Y-189100000D03*
X218500000Y-191640000D03*
X218500000Y-194180000D03*
X218500000Y-196720000D03*
X218500000Y-199260000D03*
X218500000Y-201800000D03*
X218500000Y-204340000D03*
X218500000Y-206880000D03*
X218500000Y-209420000D03*
X218500000Y-211960000D03*
X218500000Y-214500000D03*
D40*
X267321250Y-203790000D03*
X267321250Y-206330000D03*
X267321250Y-208870000D03*
X267321250Y-211410000D03*
X267321250Y-213950000D03*
X267321250Y-216490000D03*
X267321250Y-219030000D03*
X267321250Y-221570000D03*
X267321250Y-224110000D03*
X267321250Y-226650000D03*
X267321250Y-229190000D03*
X267321250Y-231730000D03*
X267321250Y-234270000D03*
X267321250Y-236810000D03*
X282878750Y-236810000D03*
X282878750Y-234270000D03*
X282878750Y-231730000D03*
X282878750Y-229190000D03*
X282878750Y-226650000D03*
X282878750Y-224110000D03*
X282878750Y-221570000D03*
X282878750Y-219030000D03*
X282878750Y-216490000D03*
X282878750Y-213950000D03*
X282878750Y-211410000D03*
X282878750Y-208870000D03*
X282878750Y-206330000D03*
X282878750Y-203790000D03*
D22*
X186300000Y-209390000D03*
X186300000Y-211930000D03*
X166500000Y-92525000D03*
X166500000Y-95065000D03*
D31*
X332150000Y-241000000D03*
X329610000Y-241000000D03*
D35*
X114700000Y-84960000D03*
X114700000Y-87500000D03*
X114700000Y-90040000D03*
X114700000Y-92580000D03*
X114700000Y-95120000D03*
X114700000Y-97660000D03*
X114700000Y-100200000D03*
X114700000Y-102740000D03*
X114700000Y-105280000D03*
X114700000Y-107820000D03*
X114700000Y-110360000D03*
X114700000Y-112900000D03*
X114700000Y-115440000D03*
X114700000Y-117980000D03*
X114700000Y-120520000D03*
X114700000Y-123060000D03*
X114700000Y-125600000D03*
X114700000Y-128140000D03*
X114700000Y-130680000D03*
X114700000Y-133220000D03*
X114700000Y-135760000D03*
X114700000Y-138300000D03*
X114700000Y-140840000D03*
X114700000Y-143380000D03*
X114700000Y-145920000D03*
X114700000Y-148460000D03*
X114700000Y-151000000D03*
X114700000Y-153540000D03*
X114700000Y-156080000D03*
X114700000Y-158620000D03*
X114700000Y-161160000D03*
X119780000Y-84960000D03*
X119780000Y-87500000D03*
X119780000Y-90040000D03*
X119780000Y-92580000D03*
X119780000Y-95120000D03*
X119780000Y-97660000D03*
X119780000Y-100200000D03*
X119780000Y-102740000D03*
X119780000Y-105280000D03*
X119780000Y-107820000D03*
X119780000Y-110360000D03*
X119780000Y-112900000D03*
X119780000Y-115440000D03*
X119780000Y-117980000D03*
X119780000Y-120520000D03*
X119780000Y-123060000D03*
X119780000Y-125600000D03*
X119780000Y-128140000D03*
X119780000Y-130680000D03*
X119780000Y-133220000D03*
X119780000Y-135760000D03*
X119780000Y-138300000D03*
X119780000Y-140840000D03*
X119780000Y-143380000D03*
X119780000Y-145920000D03*
X119780000Y-148460000D03*
X119780000Y-151000000D03*
X119780000Y-153540000D03*
X119780000Y-156080000D03*
X119780000Y-158620000D03*
X119780000Y-161160000D03*
X114700000Y-171320000D03*
X114700000Y-173860000D03*
X114700000Y-176400000D03*
X114700000Y-178940000D03*
X114700000Y-181480000D03*
X114700000Y-184020000D03*
X114700000Y-186560000D03*
X114700000Y-189100000D03*
X114700000Y-191640000D03*
X114700000Y-194180000D03*
X114700000Y-196720000D03*
X114700000Y-199260000D03*
X114700000Y-201800000D03*
X114700000Y-204340000D03*
X114700000Y-206880000D03*
X114700000Y-209420000D03*
X114700000Y-211960000D03*
X114700000Y-214500000D03*
X119780000Y-171320000D03*
X119780000Y-173860000D03*
X119780000Y-176400000D03*
X119780000Y-178940000D03*
X119780000Y-181480000D03*
X119780000Y-184020000D03*
X119780000Y-186560000D03*
X119780000Y-189100000D03*
X119780000Y-191640000D03*
X119780000Y-194180000D03*
X119780000Y-196720000D03*
X119780000Y-199260000D03*
X119780000Y-201800000D03*
X119780000Y-204340000D03*
X119780000Y-206880000D03*
X119780000Y-209420000D03*
X119780000Y-211960000D03*
X119780000Y-214500000D03*
D21*
X324200000Y-204440000D03*
X324200000Y-199360000D03*
D14*
X104760000Y-149740000D03*
D24*
X104760000Y-152280000D03*
X104760000Y-154820000D03*
X104760000Y-157360000D03*
X104760000Y-159900000D03*
X104760000Y-162440000D03*
D22*
X205890000Y-98750000D03*
X205890000Y-101290000D03*
D14*
X356460000Y-83580000D03*
D24*
X353920000Y-83580000D03*
X351380000Y-83580000D03*
X348840000Y-83580000D03*
X346300000Y-83580000D03*
X343760000Y-83580000D03*
X341220000Y-83580000D03*
X338680000Y-83580000D03*
X336140000Y-83580000D03*
X333600000Y-83580000D03*
X333600000Y-91200000D03*
X336140000Y-91200000D03*
X338680000Y-91200000D03*
X341220000Y-91200000D03*
X343760000Y-91200000D03*
X346300000Y-91200000D03*
X348840000Y-91200000D03*
X351380000Y-91200000D03*
X353920000Y-91200000D03*
X356460000Y-91200000D03*
D22*
X225550000Y-98890000D03*
X225550000Y-101430000D03*
D15*
X367225000Y-207850000D03*
D14*
X355795000Y-207850000D03*
D41*
X357510000Y-241570000D03*
X365510000Y-241570000D03*
X357510000Y-237070000D03*
X365510000Y-237070000D03*
M02*
